<svg id="figure-bezouts-identity-1" class="figure" data-name="bezouts-identity-1" width="511.225" height="66.5" viewBox="-5.975 -32.25 511.225 66.5" preserveAspectRatio="xMidYMid" xmlns="http://www.w3.org/2000/svg">

    <line x1="0" y1="0" x2="504" y2="0" marker-end="url(#arrow)" stroke-dasharray="497"></line>
    <line class="pink" x1="0" y1="-7.5" x2="72" y2="-7.5" marker-start="url(#arrow-pink)" marker-end="url(#arrow-pink)" stroke-dasharray="58" stroke-dashoffset="109"></line>
    <text class="pink" text-anchor="middle">
        <tspan x="36" y="-19.5"><tspan class="font-weight-bold">gcd</tspan></tspan>
    </text>
    <line x1="0" y1="1.25" x2="0" y2="7.5"></line>
    <text text-anchor="middle">
        <tspan x="0" y="31"><tspan class="font-weight-bold">0</tspan></tspan>
    </text>
    <line x1="36" y1="1.25" x2="36" y2="7.5"></line>
    <text text-anchor="middle">
        <tspan x="36" y="31"><tspan class="font-weight-bold">1</tspan></tspan>
    </text>
    <line x1="72" y1="1.25" x2="72" y2="7.5"></line>
    <text text-anchor="middle">
        <tspan x="72" y="31"><tspan class="font-weight-bold">2</tspan></tspan>
    </text>
    <line x1="108" y1="1.25" x2="108" y2="7.5"></line>
    <text text-anchor="middle">
        <tspan x="108" y="31"><tspan class="font-weight-bold">3</tspan></tspan>
    </text>
    <line x1="144" y1="1.25" x2="144" y2="7.5"></line>
    <text text-anchor="middle">
        <tspan x="144" y="31"><tspan class="font-weight-bold">4</tspan></tspan>
    </text>
    <line x1="180" y1="1.25" x2="180" y2="7.5"></line>
    <text text-anchor="middle">
        <tspan x="180" y="31"><tspan class="font-weight-bold">5</tspan></tspan>
    </text>
    <text text-anchor="middle">
        <tspan x="216" y="31"><tspan class="font-weight-bold">6</tspan></tspan>
    </text>
    <line x1="252" y1="1.25" x2="252" y2="7.5"></line>
    <text text-anchor="middle">
        <tspan x="252" y="31"><tspan class="font-weight-bold">7</tspan></tspan>
    </text>
    <line x1="288" y1="1.25" x2="288" y2="7.5"></line>
    <text text-anchor="middle">
        <tspan x="288" y="31"><tspan class="font-weight-bold">8</tspan></tspan>
    </text>
    <line x1="324" y1="1.25" x2="324" y2="7.5"></line>
    <text text-anchor="middle">
        <tspan x="324" y="31"><tspan class="font-weight-bold">9</tspan></tspan>
    </text>
    <text text-anchor="middle">
        <tspan x="360" y="31"><tspan class="font-weight-bold">10</tspan></tspan>
    </text>
    <line x1="396" y1="1.25" x2="396" y2="7.5"></line>
    <text text-anchor="middle">
        <tspan x="396" y="31"><tspan class="font-weight-bold">11</tspan></tspan>
    </text>
    <line x1="432" y1="1.25" x2="432" y2="7.5"></line>
    <text text-anchor="middle">
        <tspan x="432" y="31"><tspan class="font-weight-bold">12</tspan></tspan>
    </text>
    <line x1="468" y1="1.25" x2="468" y2="7.5"></line>
    <text text-anchor="middle">
        <tspan x="468" y="31"><tspan class="font-weight-bold">13</tspan></tspan>
    </text>
    <line x1="0" y1="-1.25" x2="0" y2="-7.5"></line>
    <text text-anchor="middle">
        <tspan x="0" y="31"><tspan class="font-weight-bold">0</tspan></tspan>
    </text>
    <line x1="72" y1="-1.25" x2="72" y2="-7.5"></line>
    <text text-anchor="middle">
        <tspan x="72" y="31"><tspan class="font-weight-bold">2</tspan></tspan>
    </text>
    <line x1="144" y1="-1.25" x2="144" y2="-7.5"></line>
    <text text-anchor="middle">
        <tspan x="144" y="31"><tspan class="font-weight-bold">4</tspan></tspan>
    </text>
    <text text-anchor="middle">
        <tspan x="216" y="31"><tspan class="font-weight-bold">6</tspan></tspan>
    </text>
    <line x1="288" y1="-1.25" x2="288" y2="-7.5"></line>
    <text text-anchor="middle">
        <tspan x="288" y="31"><tspan class="font-weight-bold">8</tspan></tspan>
    </text>
    <text text-anchor="middle">
        <tspan x="360" y="31"><tspan class="font-weight-bold">10</tspan></tspan>
    </text>
    <line x1="432" y1="-1.25" x2="432" y2="-7.5"></line>
    <text text-anchor="middle">
        <tspan x="432" y="31"><tspan class="font-weight-bold">12</tspan></tspan>
    </text>
    <line class="blue" x1="216" y1="-7.5" x2="216" y2="7.5"></line>
    <text class="blue" text-anchor="middle">
        <tspan x="216" y="-19.5"><tspan class="font-weight-bold">a</tspan></tspan>
    </text>
    <line class="green" x1="360" y1="-7.5" x2="360" y2="7.5"></line>
    <text class="green" text-anchor="middle">
        <tspan x="360" y="-19.5"><tspan class="font-weight-bold">b</tspan></tspan>
    </text>

</svg>
