<svg id="figure-cubic-function-2" class="figure" data-name="cubic-function-2" width="172.32999999999998" height="238.65499999999997" viewBox="-93.03 -101.36 172.32999999999998 238.65499999999997" preserveAspectRatio="xMidYMid" xmlns="http://www.w3.org/2000/svg">

    <line class="gray" x1="-59.25" y1="0" x2="79.3" y2="0" marker-end="url(#arrow-gray)" stroke-dasharray="132"></line>
    <line class="gray" x1="0" y1="109.295" x2="0" y2="-101.36" marker-end="url(#arrow-gray)" stroke-dasharray="204"></line>
    <text class="gray" text-anchor="end">
        <tspan x="67.3" y="21.5"><tspan class="font-weight-bold">x</tspan></tspan>
    </text>
    <text class="gray" text-anchor="end">
        <tspan x="-12" y="-79.86"><tspan class="font-weight-bold">y</tspan></tspan>
    </text>
    <line class="gray thin" x1="-59.875" y1="-80" x2="78.675" y2="-80"></line>
    <text class="gray" text-anchor="end">
        <tspan x="-72.5" y="-74.1">2</tspan>
    </text>
    <line class="gray thin" x1="-59.875" y1="-40" x2="78.675" y2="-40"></line>
    <text class="gray" text-anchor="end">
        <tspan x="-72.5" y="-34.1">1</tspan>
    </text>
    <text class="gray" text-anchor="end">
        <tspan x="-72.5" y="5.9">0</tspan>
    </text>
    <line class="gray thin" x1="-59.875" y1="40" x2="78.675" y2="40"></line>
    <text class="gray" text-anchor="end">
        <tspan x="-72.5" y="45.9">−1</tspan>
    </text>
    <line class="gray thin" x1="-59.875" y1="80" x2="78.675" y2="80"></line>
    <text class="gray" text-anchor="end">
        <tspan x="-72.5" y="85.9">−2</tspan>
    </text>
    <line class="gray thin" x1="-40" y1="-100.735" x2="-40" y2="109.92"></line>
    <text class="gray" text-anchor="middle">
        <tspan x="-40" y="134.045">−1</tspan>
    </text>
    <text class="gray" text-anchor="middle">
        <tspan x="0" y="134.045">0</tspan>
    </text>
    <line class="gray thin" x1="40" y1="-100.735" x2="40" y2="109.92"></line>
    <text class="gray" text-anchor="middle">
        <tspan x="40" y="134.045">1</tspan>
    </text>
    <polyline class="blue thick" points="-58,108.045 -57.754,106.037 -57.507,104.028 -57.257,102.019 -57.005,100.011 -56.751,98.002 -56.495,95.993 -56.237,93.985 -55.976,91.976 -55.713,89.967 -55.448,87.958 -55.18,85.949 -54.91,83.94 -54.637,81.931 -54.361,79.922 -54.083,77.913 -53.802,75.904 -53.519,73.894 -53.232,71.885 -52.942,69.876 -52.65,67.866 -52.354,65.857 -52.055,63.848 -51.753,61.838 -51.447,59.828 -51.138,57.819 -50.825,55.809 -50.508,53.8 -50.188,51.79 -49.863,49.78 -49.535,47.77 -49.202,45.761 -48.864,43.751 -48.523,41.741 -48.176,39.731 -47.825,37.721 -47.468,35.712 -47.107,33.702 -46.74,31.692 -46.367,29.682 -45.988,27.672 -45.603,25.663 -45.212,23.653 -44.814,21.644 -44.409,19.634 -43.997,17.625 -43.577,15.616 -43.149,13.607 -42.712,11.598 -42.267,9.589 -41.812,7.581 -41.347,5.573 -40.872,3.565 -40.386,1.558 -39.887,-0.449 -39.376,-2.455 -38.852,-4.461 -38.313,-6.466 -37.759,-8.469 -37.188,-10.472 -36.599,-12.473 -35.99,-14.473 -35.359,-16.471 -34.706,-18.467 -34.026,-20.459 -33.318,-22.449 -32.579,-24.434 -31.803,-26.413 -30.987,-28.386 -30.125,-30.35 -29.21,-32.302 -28.234,-34.238 -27.185,-36.153 -26.049,-38.037 -24.81,-39.877 -23.446,-41.648 -21.931,-43.314 -20.246,-44.812 -18.391,-46.048 -16.416,-46.914 -14.421,-47.347 -12.491,-47.372 -10.66,-47.062 -8.926,-46.49 -7.278,-45.713 -5.706,-44.776 -4.198,-43.711 -2.747,-42.545 -1.337,-41.29 0.184,-39.815 1.864,-38.053 3.793,-35.881 6.17,-33.025 9.629,-28.611 14.436,-22.234 19.02,-16.237 21.084,-13.661 22.78,-11.635 24.28,-9.928 25.705,-8.392 27.189,-6.892 28.743,-5.444 30.383,-4.068 32.121,-2.798 33.967,-1.682 35.913,-0.793 37.912,-0.212 39.877,-0.001 41.723,-0.152 43.418,-0.609 44.969,-1.311 46.395,-2.208 47.715,-3.263 48.942,-4.445 50.089,-5.732 51.166,-7.104 52.181,-8.548 53.14,-10.051 54.05,-11.604 54.916,-13.198 55.742,-14.829 56.532,-16.49 57.29,-18.178 58.018,-19.889 58.719,-21.62 59.396,-23.37 60.049,-25.135 60.681,-26.914 61.294,-28.706 61.889,-30.51 62.466,-32.324 63.028,-34.147 63.575,-35.979 64.109,-37.819 64.629,-39.666 65.137,-41.52 65.633,-43.379 66.119,-45.245 66.594,-47.115 67.059,-48.991 67.515,-50.871 67.961,-52.755 68.4,-54.644 68.83,-56.536 69.253,-58.431 69.668,-60.33 70.076,-62.232 70.477,-64.137 70.872,-66.045 71.261,-67.955 71.643,-69.868 72.02,-71.783 72.391,-73.701 72.757,-75.62 73.118,-77.542 73.474,-79.466 73.824,-81.391 74.171,-83.318 74.512,-85.247 74.85,-87.178 75.183,-89.11 75.512,-91.043 75.837,-92.978 76.158,-94.914 76.475,-96.852 76.789,-98.791 76.8,-98.86"></polyline>
    <circle class="green filled" cx="-40" cy="0" r="6"></circle>
    <circle class="green filled" cx="40" cy="0" r="6"></circle>

</svg>
