<svg width="535.98" height="74.4" viewBox="27.771 -42.65 535.98 74.4" preserveAspectRatio="xMidYMid" xmlns="http://www.w3.org/2000/svg">

    <metadata>
        <rdf:RDF xmlns:rdf="http://www.w3.org/1999/02/22-rdf-syntax-ns#" xmlns:schema="http://schema.org/">
            <rdf:Description rdf:about="">
                <schema:author rdf:resource="https://kasparetter.com/"/>
                <schema:license rdf:resource="https://creativecommons.org/licenses/by/4.0/"/>
            </rdf:Description>
        </rdf:RDF>
    </metadata>

    <style>
        @import url("https://fonts.googleapis.com/css?family=Lato:400,700,400italic");

        svg {
            font-family: Lato, Arial, STIXGeneral, -apple-system, BlinkMacSystemFont, "Segoe UI", Roboto, "Helvetica Neue", sans-serif, "Apple Color Emoji", "Segoe UI Emoji", "Segoe UI Symbol";
            font-size: 1rem;
            font-weight: 400;
            line-height: 1.5;
        }

        svg {
            fill: #000000;
            stroke: #000000;
        }

        text {
            stroke-opacity: 0;
        }

        line, rect, circle, ellipse, polygon, polyline, path {
            fill-opacity: 0;
            stroke-width: 2.5;
            stroke-linecap: round;
            stroke-linejoin: round;
        }

        marker > path {
            fill-opacity: 1;
            stroke-opacity: 0;
        }

        .font-weight-bold {
            font-weight: bold;
        }

        .script {
            font-size: 75%;
        }

        .blue {
            fill: #0066CC;
            stroke: #0066CC;
        }

        .pink {
            fill: #E60073;
            stroke: #E60073;
        }

        .green {
            fill: #009973;
            stroke: #009973;
        }
    </style>

    <defs>
        <marker id="arrow-green" orient="auto-start-reverse" markerWidth="4" markerHeight="4" refX="4" refY="2">
            <path d="M0,0 L1,2 L0,4 L4,2 Z" class="green" />
        </marker>
        <marker id="arrow-blue" orient="auto-start-reverse" markerWidth="4" markerHeight="4" refX="4" refY="2">
            <path d="M0,0 L1,2 L0,4 L4,2 Z" class="blue" />
        </marker>
    </defs>

    <path class="green" d="M 455,-5 A 17.5 14 0 0 1 490,-5 L 490.003828,-4.990762" marker-end="url(#arrow-green)" stroke-dasharray="43"></path>
    <path class="green" d="M 420,-5 A 17.5 14 0 0 1 455,-5 L 455.003828,-4.990762" marker-end="url(#arrow-green)" stroke-dasharray="43"></path>
    <path class="green" d="M 385,-5 A 17.5 14 0 0 1 420,-5 L 420.003828,-4.990762" marker-end="url(#arrow-green)" stroke-dasharray="43"></path>
    <line x1="35" y1="0" x2="560" y2="0"></line>
    <path class="blue" d="M 35,-5 A 70 36.4 0 0 1 175,-5 L 175.002395,-4.990291" marker-end="url(#arrow-blue)" stroke-dasharray="164"></path>
    <line class="pink" x1="35" y1="-5" x2="35" y2="5"></line>
    <line x1="70" y1="-5" x2="70" y2="5"></line>
    <line x1="105" y1="-5" x2="105" y2="5"></line>
    <line x1="140" y1="-5" x2="140" y2="5"></line>
    <path class="blue" d="M 175,-5 A 70 36.4 0 0 1 315,-5 L 315.002395,-4.990291" marker-end="url(#arrow-blue)" stroke-dasharray="164"></path>
    <line x1="175" y1="-5" x2="175" y2="5"></line>
    <line x1="210" y1="-5" x2="210" y2="5"></line>
    <line x1="245" y1="-5" x2="245" y2="5"></line>
    <line x1="280" y1="-5" x2="280" y2="5"></line>
    <path class="blue" d="M 315,-5 A 70 36.4 0 0 1 455,-5 L 455.002395,-4.990291" marker-end="url(#arrow-blue)" stroke-dasharray="164"></path>
    <line x1="315" y1="-5" x2="315" y2="5"></line>
    <line x1="350" y1="-5" x2="350" y2="5"></line>
    <line class="green" x1="385" y1="-5" x2="385" y2="5"></line>
    <line class="green" x1="420" y1="-5" x2="420" y2="5"></line>
    <line class="green" x1="455" y1="-5" x2="455" y2="5"></line>
    <line class="green" x1="490" y1="-5" x2="490" y2="5"></line>
    <line x1="525" y1="-5" x2="525" y2="5"></line>
    <line x1="560" y1="-5" x2="560" y2="5"></line>
    <text class="pink" text-anchor="middle">
        <tspan x="35" y="28.5"><tspan class="font-weight-bold">G</tspan></tspan>
    </text>
    <text text-anchor="middle">
        <tspan x="70" y="28.5"><tspan class="font-weight-bold">G<tspan class="script" dy="-6">2</tspan><tspan dy="6">&#8203;</tspan></tspan></tspan>
    </text>
    <text text-anchor="middle">
        <tspan x="105" y="28.5"><tspan class="font-weight-bold">G<tspan class="script" dy="-6">3</tspan><tspan dy="6">&#8203;</tspan></tspan></tspan>
    </text>
    <text text-anchor="middle">
        <tspan x="140" y="28.5"><tspan class="font-weight-bold">G<tspan class="script" dy="-6">4</tspan><tspan dy="6">&#8203;</tspan></tspan></tspan>
    </text>
    <text text-anchor="middle">
        <tspan x="175" y="28.5"><tspan class="font-weight-bold">G<tspan class="script" dy="-6">5</tspan><tspan dy="6">&#8203;</tspan></tspan></tspan>
    </text>
    <text text-anchor="middle">
        <tspan x="210" y="28.5"><tspan class="font-weight-bold">G<tspan class="script" dy="-6">6</tspan><tspan dy="6">&#8203;</tspan></tspan></tspan>
    </text>
    <text text-anchor="middle">
        <tspan x="245" y="28.5"><tspan class="font-weight-bold">…</tspan></tspan>
    </text>
    <text class="green" text-anchor="middle">
        <tspan x="385" y="28.5"><tspan class="font-weight-bold">K</tspan></tspan>
    </text>
    <text class="green" text-anchor="middle">
        <tspan x="420" y="28.5"><tspan class="font-weight-bold">KG</tspan></tspan>
    </text>
    <text class="green" text-anchor="middle">
        <tspan x="455" y="28.5"><tspan class="font-weight-bold">KG<tspan class="script" dy="-6">2</tspan><tspan dy="6">&#8203;</tspan></tspan></tspan>
    </text>
    <text class="green" text-anchor="middle">
        <tspan x="490" y="28.5"><tspan class="font-weight-bold">…</tspan></tspan>
    </text>
    <text text-anchor="middle">
        <tspan x="560" y="28.5"><tspan class="font-weight-bold">I</tspan></tspan>
    </text>
    <text class="blue" text-anchor="middle">
        <tspan x="105" y="-17"><tspan class="font-weight-bold">· G<tspan class="script" dy="-6">s</tspan><tspan dy="6">&#8203;</tspan></tspan></tspan>
    </text>

</svg>
