<svg id="figure-dlp-giant-step-left-additive" class="figure" data-name="dlp-giant-step-left-additive" width="689.98" height="97.5" viewBox="37.771 -65.75 689.98 97.5" preserveAspectRatio="xMidYMid" xmlns="http://www.w3.org/2000/svg">

    <line x1="45" y1="0" x2="720" y2="0"></line>
    <path class="green" d="M 45,-5 A 22.5 18 0 0 1 90,-5 L 90.003068,-4.990482" marker-end="url(#arrow-green)" stroke-dasharray="57"></path>
    <line class="green" x1="45" y1="-5" x2="45" y2="5"></line>
    <path class="green" d="M 90,-5 A 22.5 18 0 0 1 135,-5 L 135.003068,-4.990482" marker-end="url(#arrow-green)" stroke-dasharray="57"></path>
    <line class="green" x1="90" y1="-5" x2="90" y2="5"></line>
    <path class="green" d="M 135,-5 A 22.5 18 0 0 1 180,-5 L 180.003068,-4.990482" marker-end="url(#arrow-green)" stroke-dasharray="57"></path>
    <path class="blue" d="M 315,-5 A 90 36 0 0 0 135,-5 L 134.996818,-4.99052" marker-end="url(#arrow-blue)" stroke-dasharray="200"></path>
    <line class="green" x1="135" y1="-5" x2="135" y2="5"></line>
    <line class="green" x1="180" y1="-5" x2="180" y2="5"></line>
    <line x1="225" y1="-5" x2="225" y2="5"></line>
    <line x1="270" y1="-5" x2="270" y2="5"></line>
    <path class="blue" d="M 495,-5 A 90 36 0 0 0 315,-5 L 314.996818,-4.99052" marker-end="url(#arrow-blue)" stroke-dasharray="200"></path>
    <line x1="315" y1="-5" x2="315" y2="5"></line>
    <line x1="360" y1="-5" x2="360" y2="5"></line>
    <line x1="405" y1="-5" x2="405" y2="5"></line>
    <line x1="450" y1="-5" x2="450" y2="5"></line>
    <line class="pink" x1="495" y1="-5" x2="495" y2="5"></line>
    <line x1="540" y1="-5" x2="540" y2="5"></line>
    <line x1="585" y1="-5" x2="585" y2="5"></line>
    <line x1="630" y1="-5" x2="630" y2="5"></line>
    <line x1="675" y1="-5" x2="675" y2="5"></line>
    <line x1="720" y1="-5" x2="720" y2="5"></line>
    <text class="green" text-anchor="middle">
        <tspan x="45" y="28.5"><tspan class="font-weight-bold">G</tspan></tspan>
    </text>
    <text class="green" text-anchor="middle">
        <tspan x="90" y="28.5"><tspan class="font-weight-bold">2G</tspan></tspan>
    </text>
    <text class="green" text-anchor="middle">
        <tspan x="135" y="28.5"><tspan class="font-weight-bold">…</tspan></tspan>
    </text>
    <text class="green" text-anchor="middle">
        <tspan x="180" y="28.5"><tspan class="font-weight-bold">sG</tspan></tspan>
    </text>
    <text text-anchor="middle">
        <tspan x="225" y="28.5"><tspan class="font-weight-bold">…</tspan></tspan>
    </text>
    <text class="pink" text-anchor="middle">
        <tspan x="495" y="28.5"><tspan class="font-weight-bold">kG = K</tspan></tspan>
    </text>
    <text text-anchor="middle">
        <tspan x="720" y="28.5"><tspan class="font-weight-bold">O</tspan></tspan>
    </text>
    <text class="green" text-anchor="middle">
        <tspan x="67.5" y="-35"><tspan class="font-weight-bold">+ G</tspan></tspan>
    </text>
    <text class="blue" text-anchor="middle">
        <tspan x="405" y="-53"><tspan class="font-weight-bold">− sG</tspan></tspan>
    </text>

</svg>
