<svg width="337.53" height="413.588" viewBox="-185.03 -193.419 337.53 413.588" preserveAspectRatio="xMidYMid" xmlns="http://www.w3.org/2000/svg">

    <metadata>
        <rdf:RDF xmlns:rdf="http://www.w3.org/1999/02/22-rdf-syntax-ns#" xmlns:schema="http://schema.org/">
            <rdf:Description rdf:about="">
                <schema:author rdf:resource="https://kasparetter.com/"/>
                <schema:license rdf:resource="https://creativecommons.org/licenses/by/4.0/"/>
            </rdf:Description>
        </rdf:RDF>
    </metadata>

    <style>
        @import url("https://fonts.googleapis.com/css?family=Lato:400,700,400italic");

        svg {
            font-family: Lato, Arial, STIXGeneral, -apple-system, BlinkMacSystemFont, "Segoe UI", Roboto, "Helvetica Neue", sans-serif, "Apple Color Emoji", "Segoe UI Emoji", "Segoe UI Symbol";
            font-size: 1rem;
            font-weight: 400;
            line-height: 1.5;
        }

        svg {
            fill: #000000;
            stroke: #000000;
        }

        text {
            stroke-opacity: 0;
        }

        line, rect, circle, ellipse, polygon, polyline, path {
            fill-opacity: 0;
            stroke-width: 2.5;
            stroke-linecap: round;
            stroke-linejoin: round;
        }

        marker > path {
            fill-opacity: 1;
            stroke-opacity: 0;
        }

        .thin {
            stroke-width: 1.25;
        }

        .thick {
            stroke-width: 5;
        }

        .font-weight-bold {
            font-weight: bold;
        }

        .blue {
            fill: #0066CC;
            stroke: #0066CC;
        }

        .gray {
            fill: #666666;
            stroke: #666666;
        }
    </style>

    <defs>
        <marker id="arrow-gray" orient="auto-start-reverse" markerWidth="4" markerHeight="4" refX="4" refY="2">
            <path d="M0,0 L1,2 L0,4 L4,2 Z" class="gray" />
        </marker>
    </defs>

    <line class="gray" x1="-151.25" y1="0" x2="152.5" y2="0" marker-end="url(#arrow-gray)" stroke-dasharray="297"></line>
    <line class="gray" x1="0" y1="192.169" x2="0" y2="-193.419" marker-end="url(#arrow-gray)" stroke-dasharray="379"></line>
    <text class="gray" text-anchor="end">
        <tspan x="140.5" y="21.5"><tspan class="font-weight-bold">x</tspan></tspan>
    </text>
    <text class="gray" text-anchor="end">
        <tspan x="-12" y="-171.919"><tspan class="font-weight-bold">y</tspan></tspan>
    </text>
    <line class="gray thin" x1="-151.875" y1="-180" x2="151.875" y2="-180"></line>
    <text class="gray" text-anchor="end">
        <tspan x="-164.5" y="-174.1">3</tspan>
    </text>
    <line class="gray thin" x1="-151.875" y1="-120" x2="151.875" y2="-120"></line>
    <text class="gray" text-anchor="end">
        <tspan x="-164.5" y="-114.1">2</tspan>
    </text>
    <line class="gray thin" x1="-151.875" y1="-60" x2="151.875" y2="-60"></line>
    <text class="gray" text-anchor="end">
        <tspan x="-164.5" y="-54.1">1</tspan>
    </text>
    <text class="gray" text-anchor="end">
        <tspan x="-164.5" y="5.9">0</tspan>
    </text>
    <line class="gray thin" x1="-151.875" y1="60" x2="151.875" y2="60"></line>
    <text class="gray" text-anchor="end">
        <tspan x="-164.5" y="65.9">−1</tspan>
    </text>
    <line class="gray thin" x1="-151.875" y1="120" x2="151.875" y2="120"></line>
    <text class="gray" text-anchor="end">
        <tspan x="-164.5" y="125.9">−2</tspan>
    </text>
    <line class="gray thin" x1="-151.875" y1="180" x2="151.875" y2="180"></line>
    <text class="gray" text-anchor="end">
        <tspan x="-164.5" y="185.9">−3</tspan>
    </text>
    <line class="gray thin" x1="-120" y1="-192.794" x2="-120" y2="192.794"></line>
    <text class="gray" text-anchor="middle">
        <tspan x="-120" y="216.919">−2</tspan>
    </text>
    <line class="gray thin" x1="-60" y1="-192.794" x2="-60" y2="192.794"></line>
    <text class="gray" text-anchor="middle">
        <tspan x="-60" y="216.919">−1</tspan>
    </text>
    <text class="gray" text-anchor="middle">
        <tspan x="0" y="216.919">0</tspan>
    </text>
    <line class="gray thin" x1="60" y1="-192.794" x2="60" y2="192.794"></line>
    <text class="gray" text-anchor="middle">
        <tspan x="60" y="216.919">1</tspan>
    </text>
    <line class="gray thin" x1="120" y1="-192.794" x2="120" y2="192.794"></line>
    <text class="gray" text-anchor="middle">
        <tspan x="120" y="216.919">2</tspan>
    </text>
    <polyline class="blue thick" points="150,190.919 149.646,190.042 145.12,178.929 140.542,167.837 135.909,156.768 131.217,145.724 126.464,134.706 121.647,123.716 116.762,112.756 111.806,101.828 106.774,90.935 101.663,80.079 96.466,69.264 91.27,58.677 86.074,48.321 80.878,38.201 75.682,28.321 70.486,18.685 65.291,9.298 60.096,0.166 54.9,8.707 49.705,17.314 44.51,25.649 39.315,33.705 34.121,41.476 28.928,48.954 23.735,56.129 18.545,62.994 13.356,69.538 8.171,75.751 2.991,81.621 -2.182,87.136 -7.346,92.28 -12.496,97.04 -17.629,101.4 -22.737,105.341 -27.812,108.847 -32.843,111.898 -37.814,114.478 -42.706,116.572 -47.498,118.168 -52.158,119.263 -56.656,119.863 -60.955,119.989 -65.019,119.676 -68.817,118.976 -72.329,117.952 -75.545,116.672 -78.468,115.204 -81.18,113.56 -83.78,111.711 -86.26,109.679 -88.614,107.486 -90.843,105.153 -92.946,102.701 -94.93,100.147 -96.798,97.505 -98.557,94.788 -100.212,92.006 -101.77,89.169 -103.237,86.283 -104.616,83.354 -105.915,80.388 -107.137,77.388 -108.286,74.359 -109.366,71.301 -110.381,68.219 -111.334,65.114 -112.228,61.986 -113.065,58.837 -113.848,55.667 -114.579,52.477 -115.259,49.266 -115.89,46.035 -116.474,42.781 -117.012,39.504 -117.504,36.2 -117.953,32.869 -118.358,29.504 -118.72,26.1 -119.04,22.65 -119.316,19.141 -119.55,15.558 -119.738,11.872 -119.88,8.044 -120,0 -120,0 -119.88,-8.044 -119.738,-11.872 -119.55,-15.558 -119.316,-19.141 -119.04,-22.65 -118.72,-26.1 -118.358,-29.504 -117.953,-32.869 -117.504,-36.2 -117.012,-39.504 -116.474,-42.781 -115.89,-46.035 -115.259,-49.266 -114.579,-52.477 -113.848,-55.667 -113.065,-58.837 -112.228,-61.986 -111.334,-65.114 -110.381,-68.219 -109.366,-71.301 -108.286,-74.359 -107.137,-77.388 -105.915,-80.388 -104.616,-83.354 -103.237,-86.283 -101.77,-89.169 -100.212,-92.006 -98.557,-94.788 -96.798,-97.505 -94.93,-100.147 -92.946,-102.701 -90.843,-105.153 -88.614,-107.486 -86.26,-109.679 -83.78,-111.711 -81.18,-113.56 -78.468,-115.204 -75.545,-116.672 -72.329,-117.952 -68.817,-118.976 -65.019,-119.676 -60.955,-119.989 -56.656,-119.863 -52.158,-119.263 -47.498,-118.168 -42.706,-116.572 -37.814,-114.478 -32.843,-111.898 -27.812,-108.847 -22.737,-105.341 -17.629,-101.4 -12.496,-97.04 -7.346,-92.28 -2.182,-87.136 2.991,-81.621 8.171,-75.751 13.356,-69.538 18.545,-62.994 23.735,-56.129 28.928,-48.954 34.121,-41.476 39.315,-33.705 44.51,-25.649 49.705,-17.314 54.9,-8.707 60.096,-0.166 65.291,-9.298 70.486,-18.685 75.682,-28.321 80.878,-38.201 86.074,-48.321 91.27,-58.677 96.466,-69.264 101.663,-80.079 106.774,-90.935 111.806,-101.828 116.762,-112.756 121.647,-123.716 126.464,-134.706 131.217,-145.724 135.909,-156.768 140.542,-167.837 145.12,-178.929 149.646,-190.042 150,-190.919"></polyline>

</svg>
