<svg id="figure-modulo-line-negative" class="figure" data-name="modulo-line-negative" width="367.225" height="71.5" viewBox="-361.25 -34.75 367.225 71.5" preserveAspectRatio="xMidYMid" xmlns="http://www.w3.org/2000/svg">

    <line x1="0" y1="0" x2="-360" y2="0" marker-end="url(#arrow)" stroke-dasharray="353"></line>
    <line class="blue" x1="0" y1="-5" x2="-320" y2="-5" marker-end="url(#arrow-blue)" stroke-dasharray="313"></line>
    <line class="green" x1="-320" y1="-10" x2="-260" y2="-10" marker-end="url(#arrow-green)" stroke-dasharray="53"></line>
    <line x1="0" y1="-10" x2="0" y2="10"></line>
    <text text-anchor="middle">
        <tspan x="0" y="33.5"><tspan class="font-weight-bold">0</tspan></tspan>
    </text>
    <line x1="-80" y1="-10" x2="-80" y2="10"></line>
    <text text-anchor="middle">
        <tspan x="-80" y="33.5"><tspan class="font-weight-bold">–d</tspan></tspan>
    </text>
    <line x1="-160" y1="-10" x2="-160" y2="10"></line>
    <text text-anchor="middle">
        <tspan x="-160" y="33.5"><tspan class="font-weight-bold">–2d</tspan></tspan>
    </text>
    <line x1="-240" y1="-10" x2="-240" y2="10"></line>
    <text text-anchor="middle">
        <tspan x="-240" y="33.5"><tspan class="font-weight-bold">(q + 1)d</tspan></tspan>
    </text>
    <line x1="-320" y1="-10" x2="-320" y2="10"></line>
    <text text-anchor="middle">
        <tspan x="-320" y="33.5"><tspan class="font-weight-bold">q · d</tspan></tspan>
    </text>
    <text text-anchor="middle">
        <tspan x="-193.6" y="33.5"><tspan class="font-weight-bold">…</tspan></tspan>
    </text>
    <text class="blue" text-anchor="middle">
        <tspan x="-320" y="-22"><tspan class="font-weight-bold">q · d</tspan></tspan>
    </text>
    <text text-anchor="middle">
        <tspan x="-296.8" y="-22"><tspan class="font-weight-bold">+</tspan></tspan>
    </text>
    <text class="green" text-anchor="middle">
        <tspan x="-284.8" y="-22"><tspan class="font-weight-bold">r</tspan></tspan>
    </text>
    <text text-anchor="middle">
        <tspan x="-272.8" y="-22"><tspan class="font-weight-bold">=</tspan></tspan>
    </text>
    <line class="pink" x1="-260" y1="-10" x2="-260" y2="10"></line>
    <text class="pink" text-anchor="middle">
        <tspan x="-260" y="-22"><tspan class="font-weight-bold">n</tspan></tspan>
    </text>

</svg>
