<svg width="567.972" height="258.5" viewBox="-211.24 -73.25 567.972 258.5" preserveAspectRatio="xMidYMid" xmlns="http://www.w3.org/2000/svg">

    <metadata>
        <rdf:RDF xmlns:rdf="http://www.w3.org/1999/02/22-rdf-syntax-ns#" xmlns:schema="http://schema.org/">
            <rdf:Description rdf:about="">
                <schema:author rdf:resource="https://kasparetter.com/"/>
                <schema:license rdf:resource="https://creativecommons.org/licenses/by/4.0/"/>
            </rdf:Description>
        </rdf:RDF>
    </metadata>

    <style>
        @import url("https://fonts.googleapis.com/css?family=Lato:400,700,400italic");

        svg {
            font-family: Lato, Arial, STIXGeneral, -apple-system, BlinkMacSystemFont, "Segoe UI", Roboto, "Helvetica Neue", sans-serif, "Apple Color Emoji", "Segoe UI Emoji", "Segoe UI Symbol";
            font-size: 1rem;
            font-weight: 400;
            line-height: 1.5;
        }

        svg {
            fill: #000000;
            stroke: #000000;
        }

        text {
            stroke-opacity: 0;
        }

        line, rect, circle, ellipse, polygon, polyline, path {
            fill-opacity: 0;
            stroke-width: 2.5;
            stroke-linecap: round;
            stroke-linejoin: round;
        }

        marker > path {
            fill-opacity: 1;
            stroke-opacity: 0;
        }

        .font-weight-bold {
            font-weight: bold;
        }

        .script {
            font-size: 75%;
        }

        .gray {
            fill: #666666;
            stroke: #666666;
        }
    </style>

    <defs>
        <marker id="arrow" orient="auto-start-reverse" markerWidth="4" markerHeight="4" refX="4" refY="2">
            <path d="M0,0 L1,2 L0,4 L4,2 Z" />
        </marker>
        <marker id="arrow-gray" orient="auto-start-reverse" markerWidth="4" markerHeight="4" refX="4" refY="2">
            <path d="M0,0 L1,2 L0,4 L4,2 Z" class="gray" />
        </marker>
    </defs>

    <line x1="-48.497" y1="11.688" x2="-48.497" y2="-10.75" marker-end="url(#arrow)" stroke-dasharray="15"></line>
    <line x1="-34.37" y1="-36.156" x2="-14.939" y2="-47.375" marker-end="url(#arrow)" stroke-dasharray="15"></line>
    <line x1="14.127" y1="-47.844" x2="33.558" y2="-36.625" marker-end="url(#arrow)" stroke-dasharray="15"></line>
    <line x1="48.497" y1="-11.688" x2="48.497" y2="10.75" marker-end="url(#arrow)" stroke-dasharray="15"></line>
    <line x1="34.37" y1="36.156" x2="14.939" y2="47.375" marker-end="url(#arrow)" stroke-dasharray="15"></line>
    <line x1="-14.127" y1="47.844" x2="-33.558" y2="36.625" marker-end="url(#arrow)" stroke-dasharray="15"></line>
    <circle cx="-48.497" cy="28" r="16"></circle>
    <circle cx="-48.497" cy="-28" r="16"></circle>
    <circle cx="0" cy="-56" r="16"></circle>
    <circle cx="48.497" cy="-28" r="16"></circle>
    <circle cx="48.497" cy="28" r="16"></circle>
    <circle cx="0" cy="56" r="16"></circle>
    <text text-anchor="middle">
        <tspan x="-48.497" y="33.9"><tspan class="font-weight-bold">S<tspan class="script" dy="3">3</tspan><tspan dy="-3">&#8203;</tspan></tspan></tspan>
    </text>
    <text text-anchor="middle">
        <tspan x="-48.497" y="-22.1"><tspan class="font-weight-bold">S<tspan class="script" dy="3">4</tspan><tspan dy="-3">&#8203;</tspan></tspan></tspan>
    </text>
    <text text-anchor="middle">
        <tspan x="0" y="-50.1"><tspan class="font-weight-bold">S<tspan class="script" dy="3">5</tspan><tspan dy="-3">&#8203;</tspan></tspan></tspan>
    </text>
    <text text-anchor="middle">
        <tspan x="48.497" y="-22.1"><tspan class="font-weight-bold">S<tspan class="script" dy="3">6</tspan><tspan dy="-3">&#8203;</tspan></tspan></tspan>
    </text>
    <text text-anchor="middle">
        <tspan x="48.497" y="33.9"><tspan class="font-weight-bold">S<tspan class="script" dy="3">7</tspan><tspan dy="-3">&#8203;</tspan></tspan></tspan>
    </text>
    <text text-anchor="middle">
        <tspan x="0" y="61.9"><tspan class="font-weight-bold">S<tspan class="script" dy="3">8</tspan><tspan dy="-3">&#8203;</tspan></tspan></tspan>
    </text>
    <line x1="-48.497" y1="67.688" x2="-48.497" y2="45.25" marker-end="url(#arrow)" stroke-dasharray="15"></line>
    <circle cx="-48.497" cy="84" r="16"></circle>
    <text text-anchor="middle">
        <tspan x="-48.497" y="89.9"><tspan class="font-weight-bold">S<tspan class="script" dy="3">2</tspan><tspan dy="-3">&#8203;</tspan></tspan></tspan>
    </text>
    <line x1="-48.497" y1="123.688" x2="-48.497" y2="101.25" marker-end="url(#arrow)" stroke-dasharray="15"></line>
    <circle cx="-48.497" cy="140" r="16"></circle>
    <text text-anchor="middle">
        <tspan x="-48.497" y="145.9"><tspan class="font-weight-bold">S<tspan class="script" dy="3">1</tspan><tspan dy="-3">&#8203;</tspan></tspan></tspan>
    </text>
    <circle class="gray" cx="-96.995" cy="168" r="16"></circle>
    <line class="gray" x1="-82.868" y1="159.844" x2="-63.436" y2="148.625" marker-end="url(#arrow-gray)" stroke-dasharray="15"></line>
    <circle class="gray" cx="0" cy="168" r="16"></circle>
    <line class="gray" x1="-14.127" y1="159.844" x2="-33.558" y2="148.625" marker-end="url(#arrow-gray)" stroke-dasharray="15"></line>
    <circle class="gray" cx="-96.995" cy="112" r="16"></circle>
    <line class="gray" x1="-82.868" y1="103.844" x2="-63.436" y2="92.625" marker-end="url(#arrow-gray)" stroke-dasharray="15"></line>
    <circle class="gray" cx="-145.492" cy="140" r="16"></circle>
    <line class="gray" x1="-131.365" y1="131.844" x2="-111.934" y2="120.625" marker-end="url(#arrow-gray)" stroke-dasharray="15"></line>
    <circle class="gray" cx="-145.492" cy="84" r="16"></circle>
    <line class="gray" x1="-131.365" y1="92.156" x2="-111.934" y2="103.375" marker-end="url(#arrow-gray)" stroke-dasharray="15"></line>
    <circle class="gray" cx="-193.99" cy="112" r="16"></circle>
    <line class="gray" x1="-179.863" y1="103.844" x2="-160.431" y2="92.625" marker-end="url(#arrow-gray)" stroke-dasharray="15"></line>
    <circle class="gray" cx="-96.995" cy="-56" r="16"></circle>
    <line class="gray" x1="-82.868" y1="-47.844" x2="-63.436" y2="-36.625" marker-end="url(#arrow-gray)" stroke-dasharray="15"></line>
    <circle class="gray" cx="-145.492" cy="-28" r="16"></circle>
    <line class="gray" x1="-131.365" y1="-36.156" x2="-111.934" y2="-47.375" marker-end="url(#arrow-gray)" stroke-dasharray="15"></line>
    <circle class="gray" cx="96.995" cy="56" r="16"></circle>
    <line class="gray" x1="82.868" y1="47.844" x2="63.436" y2="36.625" marker-end="url(#arrow-gray)" stroke-dasharray="15"></line>
    <circle class="gray" cx="96.995" cy="0" r="16"></circle>
    <line class="gray" x1="82.868" y1="8.156" x2="63.436" y2="19.375" marker-end="url(#arrow-gray)" stroke-dasharray="15"></line>
    <circle class="gray" cx="145.492" cy="-28" r="16"></circle>
    <line class="gray" x1="159.619" y1="-19.844" x2="179.051" y2="-8.625" marker-end="url(#arrow-gray)" stroke-dasharray="15"></line>
    <circle class="gray" cx="242.487" cy="-28" r="16"></circle>
    <line class="gray" x1="228.36" y1="-19.844" x2="208.929" y2="-8.625" marker-end="url(#arrow-gray)" stroke-dasharray="15"></line>
    <circle class="gray" cx="242.487" cy="28" r="16"></circle>
    <line class="gray" x1="242.487" y1="11.687" x2="242.487" y2="-10.75" marker-end="url(#arrow-gray)" stroke-dasharray="15"></line>
    <circle class="gray" cx="193.99" cy="0" r="16"></circle>
    <line class="gray" x1="208.117" y1="8.156" x2="227.548" y2="19.375" marker-end="url(#arrow-gray)" stroke-dasharray="15"></line>
    <circle class="gray" cx="193.99" cy="56" r="16"></circle>
    <line class="gray" x1="208.117" y1="47.844" x2="227.548" y2="36.625" marker-end="url(#arrow-gray)" stroke-dasharray="15"></line>
    <circle class="gray" cx="193.99" cy="112" r="16"></circle>
    <line class="gray" x1="193.99" y1="95.687" x2="193.99" y2="73.25" marker-end="url(#arrow-gray)" stroke-dasharray="15"></line>
    <circle class="gray" cx="290.985" cy="56" r="16"></circle>
    <line class="gray" x1="276.857" y1="47.844" x2="257.426" y2="36.625" marker-end="url(#arrow-gray)" stroke-dasharray="15"></line>
    <circle class="gray" cx="242.487" cy="84" r="16"></circle>
    <line class="gray" x1="256.614" y1="75.844" x2="276.046" y2="64.625" marker-end="url(#arrow-gray)" stroke-dasharray="15"></line>
    <circle class="gray" cx="339.482" cy="84" r="16"></circle>
    <line class="gray" x1="325.355" y1="75.844" x2="305.923" y2="64.625" marker-end="url(#arrow-gray)" stroke-dasharray="15"></line>

</svg>
