<svg width="291.64" height="291.5" viewBox="-45.75 -24.75 291.64 291.5" preserveAspectRatio="xMidYMid" xmlns="http://www.w3.org/2000/svg">

    <metadata>
        <rdf:RDF xmlns:rdf="http://www.w3.org/1999/02/22-rdf-syntax-ns#" xmlns:schema="http://schema.org/">
            <rdf:Description rdf:about="">
                <schema:author rdf:resource="https://kasparetter.com/"/>
                <schema:license rdf:resource="https://creativecommons.org/licenses/by/4.0/"/>
            </rdf:Description>
        </rdf:RDF>
    </metadata>

    <style>
        @import url("https://fonts.googleapis.com/css?family=Lato:400,700,400italic");

        svg {
            font-family: Lato, Arial, STIXGeneral, -apple-system, BlinkMacSystemFont, "Segoe UI", Roboto, "Helvetica Neue", sans-serif, "Apple Color Emoji", "Segoe UI Emoji", "Segoe UI Symbol";
            font-size: 1rem;
            font-weight: 400;
            line-height: 1.5;
        }

        svg {
            fill: #000000;
            stroke: #000000;
        }

        text {
            stroke-opacity: 0;
        }

        line, rect, circle, ellipse, polygon, polyline, path {
            fill-opacity: 0;
            stroke-width: 2.5;
            stroke-linecap: round;
            stroke-linejoin: round;
        }

        .filled {
            fill-opacity: 1;
            stroke-width: 0;
        }

        .beta {
            fill-opacity: 0.3;
        }

        .thin {
            stroke-width: 1.25;
        }

        .blue {
            fill: #0066CC;
            stroke: #0066CC;
        }

        .green {
            fill: #009973;
            stroke: #009973;
        }
    </style>

    <rect class="blue filled beta" x="0" y="0" width="240" height="40" rx="0" ry="0"></rect>
    <text text-anchor="end">
        <tspan x="-12" y="25.9">1</tspan>
    </text>
    <rect class="green filled beta" x="0" y="40" width="48" height="40" rx="0" ry="0"></rect>
    <rect class="blue filled beta" x="48" y="40" width="192" height="40" rx="0" ry="0"></rect>
    <text text-anchor="end">
        <tspan x="-12" y="65.9">2</tspan>
    </text>
    <rect class="green filled beta" x="48" y="80" width="76.8" height="40" rx="0" ry="0"></rect>
    <rect class="blue filled beta" x="124.8" y="80" width="115.2" height="40" rx="0" ry="0"></rect>
    <text text-anchor="end">
        <tspan x="-12" y="105.9">3</tspan>
    </text>
    <rect class="green filled beta" x="124.8" y="120" width="69.12" height="40" rx="0" ry="0"></rect>
    <rect class="blue filled beta" x="193.92" y="120" width="46.08" height="40" rx="0" ry="0"></rect>
    <text text-anchor="end">
        <tspan x="-12" y="145.9">4</tspan>
    </text>
    <rect class="green filled beta" x="193.92" y="160" width="36.864" height="40" rx="0" ry="0"></rect>
    <rect class="blue filled beta" x="230.784" y="160" width="9.216" height="40" rx="0" ry="0"></rect>
    <text text-anchor="end">
        <tspan x="-12" y="185.9">5</tspan>
    </text>
    <rect class="green filled beta" x="230.784" y="200" width="9.216" height="40" rx="0" ry="0"></rect>
    <text text-anchor="end">
        <tspan x="-12" y="225.9">6</tspan>
    </text>
    <line class="thin" x1="0" y1="0" x2="240" y2="0"></line>
    <line class="thin" x1="0" y1="40" x2="240" y2="40"></line>
    <line class="thin" x1="0" y1="80" x2="240" y2="80"></line>
    <line class="thin" x1="0" y1="120" x2="240" y2="120"></line>
    <line class="thin" x1="0" y1="160" x2="240" y2="160"></line>
    <line class="thin" x1="0" y1="200" x2="240" y2="200"></line>
    <line class="thin" x1="0" y1="240" x2="240" y2="240"></line>
    <line class="thin" x1="0" y1="0" x2="0" y2="240"></line>
    <line class="thin" x1="48" y1="0" x2="48" y2="240"></line>
    <line class="thin" x1="124.8" y1="0" x2="124.8" y2="240"></line>
    <line class="thin" x1="193.92" y1="0" x2="193.92" y2="240"></line>
    <line class="thin" x1="230.784" y1="0" x2="230.784" y2="240"></line>
    <line class="thin" x1="240" y1="0" x2="240" y2="240"></line>
    <text text-anchor="middle">
        <tspan x="0" y="-12">0</tspan>
    </text>
    <text text-anchor="middle">
        <tspan x="240" y="-12">1</tspan>
    </text>
    <text text-anchor="middle">
        <tspan x="120" y="-12">Probability</tspan>
    </text>
    <text text-anchor="middle">
        <tspan x="120" y="263.5">n = 5</tspan>
    </text>
    <text transform="rotate(-90, -33, 120)" text-anchor="middle">
        <tspan x="-33" y="120">Iterations</tspan>
    </text>

</svg>
