<svg width="582.238" height="164" viewBox="-5.975 -82.75 582.238 164" preserveAspectRatio="xMidYMid" xmlns="http://www.w3.org/2000/svg">

    <metadata>
        <rdf:RDF xmlns:rdf="http://www.w3.org/1999/02/22-rdf-syntax-ns#" xmlns:schema="http://schema.org/">
            <rdf:Description rdf:about="">
                <schema:author rdf:resource="https://kasparetter.com/"/>
                <schema:license rdf:resource="https://creativecommons.org/licenses/by/4.0/"/>
            </rdf:Description>
        </rdf:RDF>
    </metadata>

    <style>
        @import url("https://fonts.googleapis.com/css?family=Lato:400,700,400italic");

        svg {
            font-family: Lato, Arial, STIXGeneral, -apple-system, BlinkMacSystemFont, "Segoe UI", Roboto, "Helvetica Neue", sans-serif, "Apple Color Emoji", "Segoe UI Emoji", "Segoe UI Symbol";
            font-size: 1rem;
            font-weight: 400;
            line-height: 1.5;
        }

        svg {
            fill: #000000;
            stroke: #000000;
        }

        text {
            stroke-opacity: 0;
        }

        line, rect, circle, ellipse, polygon, polyline, path {
            fill-opacity: 0;
            stroke-width: 2.5;
            stroke-linecap: round;
            stroke-linejoin: round;
        }

        marker > path {
            fill-opacity: 1;
            stroke-opacity: 0;
        }

        .thick {
            stroke-width: 5;
        }

        .font-weight-bold {
            font-weight: bold;
        }

        .script {
            font-size: 75%;
        }

        .blue {
            fill: #0066CC;
            stroke: #0066CC;
        }

        .green {
            fill: #009973;
            stroke: #009973;
        }
    </style>

    <defs>
        <marker id="arrow-green" orient="auto-start-reverse" markerWidth="4" markerHeight="4" refX="4" refY="2">
            <path d="M0,0 L1,2 L0,4 L4,2 Z" class="green" />
        </marker>
        <marker id="arrow-blue" orient="auto-start-reverse" markerWidth="4" markerHeight="4" refX="4" refY="2">
            <path d="M0,0 L1,2 L0,4 L4,2 Z" class="blue" />
        </marker>
    </defs>

    <path class="green" d="M 315,-5 A 140 70 0 0 0 35,-5 L 34.998166,-4.99017" marker-end="url(#arrow-green)" stroke-dasharray="332"></path>
    <line class="green thick" x1="315" y1="-5" x2="315" y2="-2.5"></line>
    <line class="green thick" x1="35" y1="-5" x2="35" y2="-2.5"></line>
    <path class="green" d="M 525,-5 A 140 70 0 0 0 245,-5 L 244.998166,-4.99017" marker-end="url(#arrow-green)" stroke-dasharray="332"></path>
    <line class="green thick" x1="525" y1="-5" x2="525" y2="-2.5"></line>
    <line class="green thick" x1="245" y1="-5" x2="245" y2="-2.5"></line>
    <text class="green" text-anchor="middle">
        <tspan x="280" y="-70"><tspan class="font-weight-bold">±2<tspan class="script" dy="-6">e</tspan><tspan dy="6">&#8203;</tspan></tspan></tspan>
    </text>
    <path class="blue" d="M 175,5 A 70 52.5 0 0 1 35,5 L 34.998726,4.990081" marker-end="url(#arrow-blue)" stroke-dasharray="186"></path>
    <line class="blue thick" x1="175" y1="5" x2="175" y2="2.5"></line>
    <line class="blue thick" x1="35" y1="5" x2="35" y2="2.5"></line>
    <path class="blue" d="M 105,5 A 70 52.5 0 0 0 245,5 L 245.001274,4.990081" marker-end="url(#arrow-blue)" stroke-dasharray="186"></path>
    <line class="blue thick" x1="105" y1="5" x2="105" y2="2.5"></line>
    <line class="blue thick" x1="245" y1="5" x2="245" y2="2.5"></line>
    <text class="blue" text-anchor="middle">
        <tspan x="140" y="78"><tspan class="font-weight-bold">±2<tspan class="script" dy="-6">e−1</tspan><tspan dy="6">&#8203;</tspan></tspan></tspan>
    </text>
    <line x1="0" y1="0" x2="560" y2="0"></line>
    <line x1="0" y1="-5" x2="0" y2="5"></line>
    <text text-anchor="middle">
        <tspan x="0" y="28.5"><tspan class="font-weight-bold">0</tspan></tspan>
    </text>
    <line x1="140" y1="-5" x2="140" y2="5"></line>
    <text text-anchor="middle">
        <tspan x="140" y="28.5"><tspan class="font-weight-bold">2<tspan class="script" dy="-6">e−1</tspan><tspan dy="6">&#8203;</tspan></tspan></tspan>
    </text>
    <line class="blue" x1="280" y1="-5" x2="280" y2="5"></line>
    <text class="blue" text-anchor="middle">
        <tspan x="280" y="28.5"><tspan class="font-weight-bold">2<tspan class="script" dy="-6">e</tspan><tspan dy="6">&#8203;</tspan></tspan></tspan>
    </text>
    <line class="green" x1="560" y1="-5" x2="560" y2="5"></line>
    <text class="green" text-anchor="middle">
        <tspan x="560" y="28.5"><tspan class="font-weight-bold">2<tspan class="script" dy="-6">e+1</tspan><tspan dy="6">&#8203;</tspan></tspan></tspan>
    </text>

</svg>
