<svg id="figure-greeting-protocol-latency" class="figure" data-name="greeting-protocol-latency" width="293.65" height="373.25" viewBox="-30.375 -1.25 293.65 373.25" preserveAspectRatio="xMidYMid" xmlns="http://www.w3.org/2000/svg">

    <g>
        <rect x="-29.125" y="0" width="58.25" height="39.5" rx="8" ry="8"></rect>
        <text x="0" y="19.75" text-anchor="middle">
            <tspan x="0" y="25.65">Alice</tspan>
        </text>
        <line x1="0" y1="40.75" x2="0" y2="370.75"></line>
    </g>
    <g>
        <rect x="203.775" y="0" width="58.25" height="39.5" rx="8" ry="8"></rect>
        <text x="232.9" y="19.75" text-anchor="middle">
            <tspan x="232.9" y="25.65">Bob</tspan>
        </text>
        <line x1="232.9" y1="40.75" x2="232.9" y2="370.75"></line>
    </g>
    <g>
        <line x1="0" y1="79.5" x2="231.65" y2="79.5" marker-start="url(#circle)" marker-end="url(#arrow)" stroke-dasharray="225"></line>
        <text x="115.825" y="69.5" text-anchor="middle">
            <tspan x="115.825" y="69.5">Hi Bob!</tspan>
        </text>
    </g>
    <g>
        <line class="blue" x1="232.9" y1="119.5" x2="1.232" y2="159.288" marker-start="url(#circle-blue)" marker-end="url(#arrow-blue)" stroke-dasharray="228"></line>
        <text class="blue" transform="rotate(-9.745, 117.066, 129.394)" x="117.066" y="129.394" text-anchor="middle">
            <tspan x="117.066" y="129.394">Hi Alice!</tspan>
        </text>
    </g>
    <g>
        <line x1="0" y1="199.5" x2="231.65" y2="199.5" marker-start="url(#circle)" marker-end="url(#arrow)" stroke-dasharray="225"></line>
        <text x="115.825" y="189.5" text-anchor="middle">
            <tspan x="115.825" y="189.5">How are you?</tspan>
        </text>
    </g>
    <g>
        <line class="blue" x1="232.9" y1="239.5" x2="1.232" y2="279.288" marker-start="url(#circle-blue)" marker-end="url(#arrow-blue)" stroke-dasharray="228"></line>
        <text class="blue" transform="rotate(-9.745, 117.066, 249.394)" x="117.066" y="249.394" text-anchor="middle">
            <tspan x="117.066" y="249.394">Good.</tspan>
        </text>
    </g>
    <g>
        <line class="blue" x1="232.9" y1="279.5" x2="1.232" y2="319.288" marker-start="url(#circle-blue)" marker-end="url(#arrow-blue)" stroke-dasharray="228"></line>
        <text class="blue" transform="rotate(-9.745, 117.066, 289.394)" x="117.066" y="289.394" text-anchor="middle">
            <tspan x="117.066" y="289.394">What about you?</tspan>
        </text>
    </g>
    <g>
        <line x1="0" y1="359.5" x2="231.65" y2="359.5" marker-start="url(#circle)" marker-end="url(#arrow)" stroke-dasharray="225"></line>
        <text x="115.825" y="349.5" text-anchor="middle">
            <tspan x="115.825" y="349.5">I'm fine, thanks.</tspan>
        </text>
    </g>

</svg>
