<svg id="figure-greeting-protocol-deviation" class="figure" data-name="greeting-protocol-deviation" width="252.55" height="253.25" viewBox="-30.375 -1.25 252.55 253.25" preserveAspectRatio="xMidYMid" xmlns="http://www.w3.org/2000/svg">

    <g>
        <rect x="-29.125" y="0" width="58.25" height="39.5" rx="8" ry="8"></rect>
        <text x="0" y="19.75" text-anchor="middle">
            <tspan x="0" y="25.65">Alice</tspan>
        </text>
        <line x1="0" y1="40.75" x2="0" y2="250.75"></line>
    </g>
    <g>
        <rect x="162.675" y="0" width="58.25" height="39.5" rx="8" ry="8"></rect>
        <text x="191.8" y="19.75" text-anchor="middle">
            <tspan x="191.8" y="25.65">Bob</tspan>
        </text>
        <line x1="191.8" y1="40.75" x2="191.8" y2="250.75"></line>
    </g>
    <g>
        <line x1="0" y1="79.5" x2="190.55" y2="79.5" marker-start="url(#circle)" marker-end="url(#arrow)" stroke-dasharray="184"></line>
        <text x="95.275" y="69.5" text-anchor="middle">
            <tspan x="95.275" y="69.5">Hi Bob!</tspan>
        </text>
    </g>
    <g>
        <line x1="191.8" y1="119.5" x2="1.25" y2="119.5" marker-start="url(#circle)" marker-end="url(#arrow)" stroke-dasharray="184"></line>
        <text x="96.525" y="109.5" text-anchor="middle">
            <tspan x="96.525" y="109.5">Hi Alice!</tspan>
        </text>
    </g>
    <g>
        <line x1="0" y1="159.5" x2="190.55" y2="159.5" marker-start="url(#circle)" marker-end="url(#arrow)" stroke-dasharray="184"></line>
        <text x="95.275" y="149.5" text-anchor="middle">
            <tspan x="95.275" y="149.5">How are you?</tspan>
        </text>
    </g>
    <g>
        <line class="red" x1="191.8" y1="199.5" x2="1.25" y2="199.5" marker-start="url(#circle-red)" marker-end="url(#arrow-red)" stroke-dasharray="184"></line>
        <text class="red" x="96.525" y="189.5" text-anchor="middle">
            <tspan x="96.525" y="189.5">Not good.</tspan>
        </text>
    </g>
    <g>
        <line class="green" x1="0" y1="239.5" x2="190.55" y2="239.5" marker-start="url(#circle-green)" marker-end="url(#arrow-green)" stroke-dasharray="184"></line>
        <text class="green" x="95.275" y="229.5" text-anchor="middle">
            <tspan x="95.275" y="229.5">What happened?</tspan>
        </text>
    </g>

</svg>
