<svg id="figure-greeting-protocol-latency" class="figure" data-name="greeting-protocol-latency" width="294.15" height="374" viewBox="-30.625 -1.5 294.15 374" preserveAspectRatio="xMidYMid" xmlns="http://www.w3.org/2000/svg">

    <defs>
        <marker id="arrow" orient="auto-start-reverse" markerWidth="4" markerHeight="4" refX="4" refY="2">
            <path d="M0,0 L1,2 L0,4 L4,2 Z" />
        </marker>
        <marker id="arrow-blue" orient="auto-start-reverse" markerWidth="4" markerHeight="4" refX="4" refY="2">
            <path d="M0,0 L1,2 L0,4 L4,2 Z" class="blue" />
        </marker>
        <marker id="circle" markerWidth="3" markerHeight="3" refX="1.5" refY="1.5">
            <circle cx="1.5" cy="1.5" r="1" />
        </marker>
        <marker id="circle-blue" markerWidth="3" markerHeight="3" refX="1.5" refY="1.5">
            <circle cx="1.5" cy="1.5" r="1" class="blue" />
        </marker>
    </defs>

    <g>
        <rect x="-29.125" y="0" width="58.25" height="39.5" rx="8" ry="8"></rect>
        <text x="0" y="19.75" text-anchor="middle">
            <tspan x="0" y="25.65">Alice</tspan>
        </text>
        <line x1="0" y1="41" x2="0" y2="371"></line>
    </g>
    <g>
        <rect x="203.775" y="0" width="58.25" height="39.5" rx="8" ry="8"></rect>
        <text x="232.9" y="19.75" text-anchor="middle">
            <tspan x="232.9" y="25.65">Bob</tspan>
        </text>
        <line x1="232.9" y1="41" x2="232.9" y2="371"></line>
    </g>
    <g>
        <line x1="0" y1="79.5" x2="231.4" y2="79.5" marker-start="url(#circle)" marker-end="url(#arrow)" stroke-dasharray="224"></line>
        <text x="115.7" y="69.5" text-anchor="middle">
            <tspan x="115.7" y="69.5">Hi Bob!</tspan>
        </text>
    </g>
    <g>
        <line class="blue" x1="232.9" y1="119.5" x2="1.478" y2="159.246" marker-start="url(#circle-blue)" marker-end="url(#arrow-blue)" stroke-dasharray="228"></line>
        <text class="blue" x="117.189" y="124.373" text-anchor="middle">
            <tspan x="117.189" y="124.373">Hi Alice!</tspan>
        </text>
    </g>
    <g>
        <line x1="0" y1="199.5" x2="231.4" y2="199.5" marker-start="url(#circle)" marker-end="url(#arrow)" stroke-dasharray="224"></line>
        <text x="115.7" y="189.5" text-anchor="middle">
            <tspan x="115.7" y="189.5">How are you?</tspan>
        </text>
    </g>
    <g>
        <line class="blue" x1="232.9" y1="239.5" x2="1.478" y2="279.246" marker-start="url(#circle-blue)" marker-end="url(#arrow-blue)" stroke-dasharray="228"></line>
        <text class="blue" x="117.189" y="244.373" text-anchor="middle">
            <tspan x="117.189" y="244.373">Good.</tspan>
        </text>
    </g>
    <g>
        <line class="blue" x1="232.9" y1="279.5" x2="1.478" y2="319.246" marker-start="url(#circle-blue)" marker-end="url(#arrow-blue)" stroke-dasharray="228"></line>
        <text class="blue" x="117.189" y="284.373" text-anchor="middle">
            <tspan x="117.189" y="284.373">What about you?</tspan>
        </text>
    </g>
    <g>
        <line x1="0" y1="359.5" x2="231.4" y2="359.5" marker-start="url(#circle)" marker-end="url(#arrow)" stroke-dasharray="224"></line>
        <text x="115.7" y="349.5" text-anchor="middle">
            <tspan x="115.7" y="349.5">I'm fine, thanks.</tspan>
        </text>
    </g>

</svg>
