<svg id="figure-greeting-protocol-delay" class="figure" data-name="greeting-protocol-delay" width="294.15" height="334" viewBox="-30.625 -1.5 294.15 334" preserveAspectRatio="xMidYMid" xmlns="http://www.w3.org/2000/svg">

    <defs>
        <marker id="arrow" orient="auto-start-reverse" markerWidth="4" markerHeight="4" refX="4" refY="2">
            <path d="M0,0 L1,2 L0,4 L4,2 Z" />
        </marker>
        <marker id="arrow-blue" orient="auto-start-reverse" markerWidth="4" markerHeight="4" refX="4" refY="2">
            <path d="M0,0 L1,2 L0,4 L4,2 Z" class="blue" />
        </marker>
        <marker id="arrow-green" orient="auto-start-reverse" markerWidth="4" markerHeight="4" refX="4" refY="2">
            <path d="M0,0 L1,2 L0,4 L4,2 Z" class="green" />
        </marker>
        <marker id="circle" markerWidth="3" markerHeight="3" refX="1.5" refY="1.5">
            <circle cx="1.5" cy="1.5" r="1" />
        </marker>
        <marker id="circle-blue" markerWidth="3" markerHeight="3" refX="1.5" refY="1.5">
            <circle cx="1.5" cy="1.5" r="1" class="blue" />
        </marker>
        <marker id="circle-green" markerWidth="3" markerHeight="3" refX="1.5" refY="1.5">
            <circle cx="1.5" cy="1.5" r="1" class="green" />
        </marker>
    </defs>

    <g>
        <rect x="-29.125" y="0" width="58.25" height="39.5" rx="8" ry="8"></rect>
        <text x="0" y="19.75" text-anchor="middle">
            <tspan x="0" y="25.65">Alice</tspan>
        </text>
        <line x1="0" y1="41" x2="0" y2="331"></line>
    </g>
    <g>
        <rect x="203.775" y="0" width="58.25" height="39.5" rx="8" ry="8"></rect>
        <text x="232.9" y="19.75" text-anchor="middle">
            <tspan x="232.9" y="25.65">Bob</tspan>
        </text>
        <line x1="232.9" y1="41" x2="232.9" y2="331"></line>
    </g>
    <g>
        <line x1="0" y1="79.5" x2="231.4" y2="79.5" marker-start="url(#circle)" marker-end="url(#arrow)" stroke-dasharray="224"></line>
        <text x="115.7" y="69.5" text-anchor="middle">
            <tspan x="115.7" y="69.5">Hi Bob!</tspan>
        </text>
    </g>
    <g>
        <line x1="232.9" y1="119.5" x2="1.5" y2="119.5" marker-start="url(#circle)" marker-end="url(#arrow)" stroke-dasharray="224"></line>
        <text x="117.2" y="109.5" text-anchor="middle">
            <tspan x="117.2" y="109.5">Hi Alice!</tspan>
        </text>
    </g>
    <g>
        <line x1="0" y1="159.5" x2="231.4" y2="159.5" marker-start="url(#circle)" marker-end="url(#arrow)" stroke-dasharray="224"></line>
        <text x="115.7" y="149.5" text-anchor="middle">
            <tspan x="115.7" y="149.5">How are you?</tspan>
        </text>
    </g>
    <g>
        <line class="blue" x1="232.9" y1="199.5" x2="1.419" y2="279.013" marker-start="url(#circle-blue)" marker-end="url(#arrow-blue)" stroke-dasharray="238"></line>
        <text class="blue" x="177.159" y="204.256" text-anchor="middle">
            <tspan x="177.159" y="204.256">Good.</tspan>
        </text>
    </g>
    <g>
        <line class="green" x1="232.9" y1="239.5" x2="1.5" y2="239.5" marker-start="url(#circle-green)" marker-end="url(#arrow-green)" stroke-dasharray="224"></line>
        <text class="green" x="69.2" y="229.5" text-anchor="middle">
            <tspan x="69.2" y="229.5">What about you?</tspan>
        </text>
    </g>
    <g>
        <line x1="0" y1="319.5" x2="231.4" y2="319.5" marker-start="url(#circle)" marker-end="url(#arrow)" stroke-dasharray="224"></line>
        <text x="115.7" y="309.5" text-anchor="middle">
            <tspan x="115.7" y="309.5">I'm fine, thanks.</tspan>
        </text>
    </g>

</svg>
