<svg id="figure-greeting-protocol-timeout" class="figure" data-name="greeting-protocol-timeout" width="184.55" height="294" viewBox="-30.625 -1.5 184.55 294" preserveAspectRatio="xMidYMid" xmlns="http://www.w3.org/2000/svg">

    <defs>
        <marker id="arrow" orient="auto-start-reverse" markerWidth="4" markerHeight="4" refX="4" refY="2">
            <path d="M0,0 L1,2 L0,4 L4,2 Z" />
        </marker>
        <marker id="arrow-red" orient="auto-start-reverse" markerWidth="4" markerHeight="4" refX="4" refY="2">
            <path d="M0,0 L1,2 L0,4 L4,2 Z" class="red" />
        </marker>
        <marker id="circle" markerWidth="3" markerHeight="3" refX="1.5" refY="1.5">
            <circle cx="1.5" cy="1.5" r="1" />
        </marker>
        <marker id="circle-red" markerWidth="3" markerHeight="3" refX="1.5" refY="1.5">
            <circle cx="1.5" cy="1.5" r="1" class="red" />
        </marker>
    </defs>

    <g>
        <rect x="-29.125" y="0" width="58.25" height="39.5" rx="8" ry="8"></rect>
        <text x="0" y="19.75" text-anchor="middle">
            <tspan x="0" y="25.65">Alice</tspan>
        </text>
        <line x1="0" y1="41" x2="0" y2="291"></line>
    </g>
    <g>
        <rect x="94.175" y="0" width="58.25" height="39.5" rx="8" ry="8"></rect>
        <text x="123.3" y="19.75" text-anchor="middle">
            <tspan x="123.3" y="25.65">Bob</tspan>
        </text>
        <line x1="123.3" y1="41" x2="123.3" y2="291"></line>
    </g>
    <g>
        <line x1="0" y1="79.5" x2="121.8" y2="79.5" marker-start="url(#circle)" marker-end="url(#arrow)" stroke-dasharray="115"></line>
        <text x="60.9" y="69.5" text-anchor="middle">
            <tspan x="60.9" y="69.5">Hi Bob!</tspan>
        </text>
    </g>
    <g>
        <line x1="123.3" y1="119.5" x2="1.5" y2="119.5" marker-start="url(#circle)" marker-end="url(#arrow)" stroke-dasharray="115"></line>
        <text x="62.4" y="109.5" text-anchor="middle">
            <tspan x="62.4" y="109.5">Hi Alice!</tspan>
        </text>
    </g>
    <g>
        <line class="red" x1="123.3" y1="279.5" x2="1.5" y2="279.5" marker-start="url(#circle-red)" marker-end="url(#arrow-red)" stroke-dasharray="115"></line>
        <text class="red" x="62.4" y="269.5" text-anchor="middle">
            <tspan x="62.4" y="269.5">Bye.</tspan>
        </text>
    </g>

</svg>
