<svg id="figure-greeting-protocol-default" class="figure" data-name="greeting-protocol-default" width="293.65" height="293.25" viewBox="-30.375 -1.25 293.65 293.25" preserveAspectRatio="xMidYMid" xmlns="http://www.w3.org/2000/svg">

    <g>
        <rect x="-29.125" y="0" width="58.25" height="39.5" rx="8" ry="8"></rect>
        <text x="0" y="19.75" text-anchor="middle">
            <tspan x="0" y="25.65">Alice</tspan>
        </text>
        <line x1="0" y1="40.75" x2="0" y2="290.75"></line>
    </g>
    <g>
        <rect x="203.775" y="0" width="58.25" height="39.5" rx="8" ry="8"></rect>
        <text x="232.9" y="19.75" text-anchor="middle">
            <tspan x="232.9" y="25.65">Bob</tspan>
        </text>
        <line x1="232.9" y1="40.75" x2="232.9" y2="290.75"></line>
    </g>
    <g>
        <line x1="0" y1="79.5" x2="231.65" y2="79.5" marker-start="url(#circle)" marker-end="url(#arrow)" stroke-dasharray="225"></line>
        <text x="115.825" y="69.5" text-anchor="middle">
            <tspan x="115.825" y="69.5">Hi Bob!</tspan>
        </text>
    </g>
    <g>
        <line x1="232.9" y1="119.5" x2="1.25" y2="119.5" marker-start="url(#circle)" marker-end="url(#arrow)" stroke-dasharray="225"></line>
        <text x="117.075" y="109.5" text-anchor="middle">
            <tspan x="117.075" y="109.5">Hi Alice!</tspan>
        </text>
    </g>
    <g>
        <line x1="0" y1="159.5" x2="231.65" y2="159.5" marker-start="url(#circle)" marker-end="url(#arrow)" stroke-dasharray="225"></line>
        <text x="115.825" y="149.5" text-anchor="middle">
            <tspan x="115.825" y="149.5">How are you?</tspan>
        </text>
    </g>
    <g>
        <line x1="232.9" y1="199.5" x2="1.25" y2="199.5" marker-start="url(#circle)" marker-end="url(#arrow)" stroke-dasharray="225"></line>
        <text x="117.075" y="189.5" text-anchor="middle">
            <tspan x="117.075" y="189.5">Good.</tspan>
        </text>
    </g>
    <g>
        <line x1="232.9" y1="239.5" x2="1.25" y2="239.5" marker-start="url(#circle)" marker-end="url(#arrow)" stroke-dasharray="225"></line>
        <text x="117.075" y="229.5" text-anchor="middle">
            <tspan x="117.075" y="229.5">What about you?</tspan>
        </text>
    </g>
    <g>
        <line x1="0" y1="279.5" x2="231.65" y2="279.5" marker-start="url(#circle)" marker-end="url(#arrow)" stroke-dasharray="225"></line>
        <text x="115.825" y="269.5" text-anchor="middle">
            <tspan x="115.825" y="269.5">I'm fine, thanks.</tspan>
        </text>
    </g>

</svg>
