<svg id="figure-internet-layers" class="figure" data-name="internet-layers" width="485.716" height="365.75" viewBox="-1.25 -7 485.716 365.75" preserveAspectRatio="xMidYMid" xmlns="http://www.w3.org/2000/svg">

    <text class="yellow" x="0" y="35" text-anchor="start">
        <tspan x="0" y="40.9">Application layer</tspan>
    </text>
    <text class="orange" x="0" y="110" text-anchor="start">
        <tspan x="0" y="115.9">Security layer</tspan>
    </text>
    <text class="red" x="0" y="185" text-anchor="start">
        <tspan x="0" y="190.9">Transport layer</tspan>
    </text>
    <text class="pink" x="0" y="260" text-anchor="start">
        <tspan x="0" y="265.9">Network layer</tspan>
    </text>
    <text class="purple" x="0" y="335" text-anchor="start">
        <tspan x="0" y="340.9">Link layer</tspan>
    </text>
    <text x="150" y="0" text-anchor="middle">
        <tspan x="150" y="5.9">Sender</tspan>
    </text>
    <text x="300" y="0" text-anchor="middle">
        <tspan x="300" y="5.9">Router</tspan>
    </text>
    <text x="450" y="0" text-anchor="middle">
        <tspan x="450" y="5.9">Recipient</tspan>
    </text>
    <rect class="yellow angular" x="145.5" y="30.5" width="9" height="9" rx="0" ry="0"></rect>
    <rect class="yellow angular" x="145.5" y="105.5" width="9" height="9" rx="0" ry="0"></rect>
    <rect class="orange angular" x="141" y="101" width="18" height="18" rx="0" ry="0"></rect>
    <line class="yellow" x1="150" y1="48.75" x2="150" y2="91.75" marker-end="url(#arrow-yellow)" stroke-dasharray="36"></line>
    <rect class="yellow angular" x="145.5" y="180.5" width="9" height="9" rx="0" ry="0"></rect>
    <rect class="orange angular" x="141" y="176" width="18" height="18" rx="0" ry="0"></rect>
    <rect class="red angular" x="136.5" y="171.5" width="27" height="27" rx="0" ry="0"></rect>
    <line class="orange" x1="150" y1="128.25" x2="150" y2="162.25" marker-end="url(#arrow-orange)" stroke-dasharray="27"></line>
    <rect class="yellow angular" x="145.5" y="255.5" width="9" height="9" rx="0" ry="0"></rect>
    <rect class="orange angular" x="141" y="251" width="18" height="18" rx="0" ry="0"></rect>
    <rect class="red angular" x="136.5" y="246.5" width="27" height="27" rx="0" ry="0"></rect>
    <rect class="pink angular" x="132" y="242" width="36" height="36" rx="0" ry="0"></rect>
    <line class="red" x1="150" y1="207.75" x2="150" y2="232.75" marker-end="url(#arrow-red)" stroke-dasharray="18"></line>
    <rect class="yellow angular" x="145.5" y="330.5" width="9" height="9" rx="0" ry="0"></rect>
    <rect class="orange angular" x="141" y="326" width="18" height="18" rx="0" ry="0"></rect>
    <rect class="red angular" x="136.5" y="321.5" width="27" height="27" rx="0" ry="0"></rect>
    <rect class="pink angular" x="132" y="317" width="36" height="36" rx="0" ry="0"></rect>
    <rect class="purple angular" x="127.5" y="312.5" width="45" height="45" rx="0" ry="0"></rect>
    <line class="pink" x1="150" y1="287.25" x2="150" y2="303.25" marker-end="url(#arrow-pink)" stroke-dasharray="9"></line>
    <rect class="yellow angular" x="258" y="330.5" width="9" height="9" rx="0" ry="0"></rect>
    <rect class="orange angular" x="253.5" y="326" width="18" height="18" rx="0" ry="0"></rect>
    <rect class="red angular" x="249" y="321.5" width="27" height="27" rx="0" ry="0"></rect>
    <rect class="pink angular" x="244.5" y="317" width="36" height="36" rx="0" ry="0"></rect>
    <rect class="purple angular" x="240" y="312.5" width="45" height="45" rx="0" ry="0"></rect>
    <line class="purple" x1="181.75" y1="335" x2="230.75" y2="335" marker-end="url(#arrow-purple)" stroke-dasharray="42"></line>
    <rect class="yellow angular" x="295.5" y="255.5" width="9" height="9" rx="0" ry="0"></rect>
    <rect class="orange angular" x="291" y="251" width="18" height="18" rx="0" ry="0"></rect>
    <rect class="red angular" x="286.5" y="246.5" width="27" height="27" rx="0" ry="0"></rect>
    <rect class="pink angular" x="282" y="242" width="36" height="36" rx="0" ry="0"></rect>
    <line class="purple" x1="268.585" y1="306.057" x2="293.915" y2="284.443" marker-end="url(#arrow-purple)" stroke-dasharray="26"></line>
    <rect class="yellow angular" x="333" y="330.5" width="9" height="9" rx="0" ry="0"></rect>
    <rect class="orange angular" x="328.5" y="326" width="18" height="18" rx="0" ry="0"></rect>
    <rect class="red angular" x="324" y="321.5" width="27" height="27" rx="0" ry="0"></rect>
    <rect class="pink angular" x="319.5" y="317" width="36" height="36" rx="0" ry="0"></rect>
    <rect class="purple angular" x="315" y="312.5" width="45" height="45" rx="0" ry="0"></rect>
    <line class="pink" x1="306.085" y1="284.443" x2="331.415" y2="306.057" marker-end="url(#arrow-pink)" stroke-dasharray="26"></line>
    <rect class="yellow angular" x="445.5" y="330.5" width="9" height="9" rx="0" ry="0"></rect>
    <rect class="orange angular" x="441" y="326" width="18" height="18" rx="0" ry="0"></rect>
    <rect class="red angular" x="436.5" y="321.5" width="27" height="27" rx="0" ry="0"></rect>
    <rect class="pink angular" x="432" y="317" width="36" height="36" rx="0" ry="0"></rect>
    <rect class="purple angular" x="427.5" y="312.5" width="45" height="45" rx="0" ry="0"></rect>
    <line class="purple" x1="369.25" y1="335" x2="418.25" y2="335" marker-end="url(#arrow-purple)" stroke-dasharray="42"></line>
    <rect class="yellow angular" x="445.5" y="255.5" width="9" height="9" rx="0" ry="0"></rect>
    <rect class="orange angular" x="441" y="251" width="18" height="18" rx="0" ry="0"></rect>
    <rect class="red angular" x="436.5" y="246.5" width="27" height="27" rx="0" ry="0"></rect>
    <rect class="pink angular" x="432" y="242" width="36" height="36" rx="0" ry="0"></rect>
    <line class="purple" x1="450" y1="303.25" x2="450" y2="287.25" marker-end="url(#arrow-purple)" stroke-dasharray="9"></line>
    <rect class="yellow angular" x="445.5" y="180.5" width="9" height="9" rx="0" ry="0"></rect>
    <rect class="orange angular" x="441" y="176" width="18" height="18" rx="0" ry="0"></rect>
    <rect class="red angular" x="436.5" y="171.5" width="27" height="27" rx="0" ry="0"></rect>
    <line class="pink" x1="450" y1="232.75" x2="450" y2="207.75" marker-end="url(#arrow-pink)" stroke-dasharray="18"></line>
    <rect class="yellow angular" x="445.5" y="105.5" width="9" height="9" rx="0" ry="0"></rect>
    <rect class="orange angular" x="441" y="101" width="18" height="18" rx="0" ry="0"></rect>
    <line class="red" x1="450" y1="162.25" x2="450" y2="128.25" marker-end="url(#arrow-red)" stroke-dasharray="27"></line>
    <rect class="yellow angular" x="445.5" y="30.5" width="9" height="9" rx="0" ry="0"></rect>
    <line class="orange" x1="450" y1="91.75" x2="450" y2="48.75" marker-end="url(#arrow-orange)" stroke-dasharray="36"></line>

</svg>
