<svg id="figure-network-topology-star" class="figure" data-name="network-topology-star" width="217.6028511286695" height="208.66563145999496" viewBox="-108.80142556433475 -113.5 217.6028511286695 208.66563145999496" preserveAspectRatio="xMidYMid" xmlns="http://www.w3.org/2000/svg">

    <defs>
        <marker id="arrow" orient="auto-start-reverse" markerWidth="4" markerHeight="4" refX="4" refY="2">
            <path d="M0,0 L1,2 L0,4 L4,2 Z" />
        </marker>
        <marker id="circle" markerWidth="3" markerHeight="3" refX="1.5" refY="1.5">
            <circle cx="1.5" cy="1.5" r="1" />
        </marker>
        <marker id="arrow-blue" orient="auto-start-reverse" markerWidth="4" markerHeight="4" refX="4" refY="2">
            <path d="M0,0 L1,2 L0,4 L4,2 Z" class="blue" />
        </marker>
        <marker id="circle-blue" markerWidth="3" markerHeight="3" refX="1.5" refY="1.5">
            <circle cx="1.5" cy="1.5" r="1" class="blue" />
        </marker>
        <marker id="arrow-purple" orient="auto-start-reverse" markerWidth="4" markerHeight="4" refX="4" refY="2">
            <path d="M0,0 L1,2 L0,4 L4,2 Z" class="purple" />
        </marker>
        <marker id="circle-purple" markerWidth="3" markerHeight="3" refX="1.5" refY="1.5">
            <circle cx="1.5" cy="1.5" r="1" class="purple" />
        </marker>
        <marker id="arrow-pink" orient="auto-start-reverse" markerWidth="4" markerHeight="4" refX="4" refY="2">
            <path d="M0,0 L1,2 L0,4 L4,2 Z" class="pink" />
        </marker>
        <marker id="circle-pink" markerWidth="3" markerHeight="3" refX="1.5" refY="1.5">
            <circle cx="1.5" cy="1.5" r="1" class="pink" />
        </marker>
        <marker id="arrow-red" orient="auto-start-reverse" markerWidth="4" markerHeight="4" refX="4" refY="2">
            <path d="M0,0 L1,2 L0,4 L4,2 Z" class="red" />
        </marker>
        <marker id="circle-red" markerWidth="3" markerHeight="3" refX="1.5" refY="1.5">
            <circle cx="1.5" cy="1.5" r="1" class="red" />
        </marker>
        <marker id="arrow-orange" orient="auto-start-reverse" markerWidth="4" markerHeight="4" refX="4" refY="2">
            <path d="M0,0 L1,2 L0,4 L4,2 Z" class="orange" />
        </marker>
        <marker id="circle-orange" markerWidth="3" markerHeight="3" refX="1.5" refY="1.5">
            <circle cx="1.5" cy="1.5" r="1" class="orange" />
        </marker>
        <marker id="arrow-yellow" orient="auto-start-reverse" markerWidth="4" markerHeight="4" refX="4" refY="2">
            <path d="M0,0 L1,2 L0,4 L4,2 Z" class="yellow" />
        </marker>
        <marker id="circle-yellow" markerWidth="3" markerHeight="3" refX="1.5" refY="1.5">
            <circle cx="1.5" cy="1.5" r="1" class="yellow" />
        </marker>
        <marker id="arrow-green" orient="auto-start-reverse" markerWidth="4" markerHeight="4" refX="4" refY="2">
            <path d="M0,0 L1,2 L0,4 L4,2 Z" class="green" />
        </marker>
        <marker id="circle-green" markerWidth="3" markerHeight="3" refX="1.5" refY="1.5">
            <circle cx="1.5" cy="1.5" r="1" class="green" />
        </marker>
        <marker id="arrow-brown" orient="auto-start-reverse" markerWidth="4" markerHeight="4" refX="4" refY="2">
            <path d="M0,0 L1,2 L0,4 L4,2 Z" class="brown" />
        </marker>
        <marker id="circle-brown" markerWidth="3" markerHeight="3" refX="1.5" refY="1.5">
            <circle cx="1.5" cy="1.5" r="1" class="brown" />
        </marker>
        <marker id="arrow-gray" orient="auto-start-reverse" markerWidth="4" markerHeight="4" refX="4" refY="2">
            <path d="M0,0 L1,2 L0,4 L4,2 Z" class="gray" />
        </marker>
        <marker id="circle-gray" markerWidth="3" markerHeight="3" refX="1.5" refY="1.5">
            <circle cx="1.5" cy="1.5" r="1" class="gray" />
        </marker>
    </defs>

    <line class="yellow" x1="46.141" y1="63.508" x2="10.286" y2="14.158" marker-start="url(#arrow-yellow)" marker-end="url(#arrow-yellow)" stroke-dasharray="47" stroke-dashoffset="87"></line>
    <line class="yellow" x1="-46.141" y1="63.508" x2="-10.286" y2="14.158" marker-start="url(#arrow-yellow)" marker-end="url(#arrow-yellow)" stroke-dasharray="47" stroke-dashoffset="87"></line>
    <line class="yellow" x1="-74.658" y1="-24.258" x2="-16.643" y2="-5.408" marker-start="url(#arrow-yellow)" marker-end="url(#arrow-yellow)" stroke-dasharray="47" stroke-dashoffset="87"></line>
    <line class="yellow" x1="0" y1="-78.5" x2="0" y2="-17.5" marker-start="url(#arrow-yellow)" marker-end="url(#arrow-yellow)" stroke-dasharray="47" stroke-dashoffset="87"></line>
    <line class="yellow" x1="74.658" y1="-24.258" x2="16.643" y2="-5.408" marker-start="url(#arrow-yellow)" marker-end="url(#arrow-yellow)" stroke-dasharray="47" stroke-dashoffset="87"></line>
    <circle class="green" cx="56.427" cy="77.666" r="16"></circle>
    <circle class="green" cx="-56.427" cy="77.666" r="16"></circle>
    <circle class="green" cx="-91.301" cy="-29.666" r="16"></circle>
    <circle class="green" cx="0" cy="-96" r="16"></circle>
    <circle class="green" cx="91.301" cy="-29.666" r="16"></circle>
    <circle class="blue" cx="0" cy="0" r="16"></circle>
</svg>

