<svg id="figure-network-topology-mesh" class="figure" data-name="network-topology-mesh" width="278.749" height="278.75" viewBox="-100.638 -110.229 278.749 278.75" preserveAspectRatio="xMidYMid" xmlns="http://www.w3.org/2000/svg">

    <defs>
        <marker id="arrow-yellow" orient="auto-start-reverse" markerWidth="4" markerHeight="4" refX="4" refY="2">
            <path d="M0,0 L1,2 L0,4 L4,2 Z" class="yellow" />
        </marker>
    </defs>

    <line class="yellow" x1="-15.155" y1="8.75" x2="-67.983" y2="39.25" marker-start="url(#arrow-yellow)" marker-end="url(#arrow-yellow)" stroke-dasharray="47" stroke-dashoffset="87"></line>
    <line class="yellow" x1="-8.75" y1="-15.155" x2="-39.25" y2="-67.983" marker-start="url(#arrow-yellow)" marker-end="url(#arrow-yellow)" stroke-dasharray="47" stroke-dashoffset="87"></line>
    <line class="yellow" x1="16.904" y1="-4.529" x2="75.825" y2="-20.317" marker-start="url(#arrow-yellow)" marker-end="url(#arrow-yellow)" stroke-dasharray="47" stroke-dashoffset="87"></line>
    <line class="yellow" x1="12.374" y1="12.374" x2="55.508" y2="55.508" marker-start="url(#arrow-yellow)" marker-end="url(#arrow-yellow)" stroke-dasharray="47" stroke-dashoffset="87"></line>
    <line class="yellow" x1="88.2" y1="-7.943" x2="72.412" y2="50.979" marker-start="url(#arrow-yellow)" marker-end="url(#arrow-yellow)" stroke-dasharray="47" stroke-dashoffset="87"></line>
    <line class="yellow" x1="105.103" y1="-37.221" x2="148.237" y2="-80.355" marker-start="url(#arrow-yellow)" marker-end="url(#arrow-yellow)" stroke-dasharray="47" stroke-dashoffset="87"></line>
    <line class="yellow" x1="105.103" y1="-12.472" x2="148.237" y2="30.661" marker-start="url(#arrow-yellow)" marker-end="url(#arrow-yellow)" stroke-dasharray="47" stroke-dashoffset="87"></line>
    <line class="yellow" x1="84.786" y1="63.353" x2="143.707" y2="47.565" marker-start="url(#arrow-yellow)" marker-end="url(#arrow-yellow)" stroke-dasharray="47" stroke-dashoffset="87"></line>
    <line class="yellow" x1="76.632" y1="83.038" x2="107.132" y2="135.865" marker-start="url(#arrow-yellow)" marker-end="url(#arrow-yellow)" stroke-dasharray="47" stroke-dashoffset="87"></line>
    <line class="yellow" x1="55.508" y1="80.257" x2="12.374" y2="123.39" marker-start="url(#arrow-yellow)" marker-end="url(#arrow-yellow)" stroke-dasharray="47" stroke-dashoffset="87"></line>
    <circle class="green" cx="-83.138" cy="48" r="16"></circle>
    <circle class="green" cx="-48" cy="-83.138" r="16"></circle>
    <circle class="green" cx="160.611" cy="-92.729" r="16"></circle>
    <circle class="green" cx="160.611" cy="43.036" r="16"></circle>
    <circle class="green" cx="115.882" cy="151.021" r="16"></circle>
    <circle class="green" cx="0" cy="135.765" r="16"></circle>
    <circle class="blue" cx="0" cy="0" r="16"></circle>
    <circle class="blue" cx="92.729" cy="-24.847" r="16"></circle>
    <circle class="blue" cx="67.882" cy="67.882" r="16"></circle>
    <text class="green" x="160.611" y="43.036" text-anchor="middle">
        <tspan x="160.611" y="48.936">*</tspan>
    </text>

</svg>
