<svg id="figure-network-topology-mesh" class="figure" data-name="network-topology-mesh" width="278.249" height="278.25" viewBox="-100.388 -109.979 278.249 278.25" preserveAspectRatio="xMidYMid" xmlns="http://www.w3.org/2000/svg">

    <defs>
        <marker id="arrow-yellow" orient="auto-start-reverse" markerWidth="4" markerHeight="4" refX="4" refY="2">
            <path d="M0,0 L1,2 L0,4 L4,2 Z" class="yellow" />
        </marker>
    </defs>

    <line class="yellow" x1="-14.939" y1="8.625" x2="-68.2" y2="39.375" marker-start="url(#arrow-yellow)" marker-end="url(#arrow-yellow)" stroke-dasharray="47" stroke-dashoffset="87"></line>
    <line class="yellow" x1="-8.625" y1="-14.939" x2="-39.375" y2="-68.2" marker-start="url(#arrow-yellow)" marker-end="url(#arrow-yellow)" stroke-dasharray="48" stroke-dashoffset="89"></line>
    <line class="yellow" x1="16.662" y1="-4.465" x2="76.067" y2="-20.382" marker-start="url(#arrow-yellow)" marker-end="url(#arrow-yellow)" stroke-dasharray="48" stroke-dashoffset="89"></line>
    <line class="yellow" x1="12.198" y1="12.198" x2="55.685" y2="55.685" marker-start="url(#arrow-yellow)" marker-end="url(#arrow-yellow)" stroke-dasharray="48" stroke-dashoffset="89"></line>
    <line class="yellow" x1="88.264" y1="-8.184" x2="72.347" y2="51.22" marker-start="url(#arrow-yellow)" marker-end="url(#arrow-yellow)" stroke-dasharray="48" stroke-dashoffset="89"></line>
    <line class="yellow" x1="104.926" y1="-37.044" x2="148.414" y2="-80.531" marker-start="url(#arrow-yellow)" marker-end="url(#arrow-yellow)" stroke-dasharray="48" stroke-dashoffset="89"></line>
    <line class="yellow" x1="104.926" y1="-12.649" x2="148.414" y2="30.838" marker-start="url(#arrow-yellow)" marker-end="url(#arrow-yellow)" stroke-dasharray="47" stroke-dashoffset="87"></line>
    <line class="yellow" x1="84.544" y1="63.418" x2="143.949" y2="47.5" marker-start="url(#arrow-yellow)" marker-end="url(#arrow-yellow)" stroke-dasharray="48" stroke-dashoffset="89"></line>
    <line class="yellow" x1="76.507" y1="82.821" x2="107.257" y2="136.082" marker-start="url(#arrow-yellow)" marker-end="url(#arrow-yellow)" stroke-dasharray="48" stroke-dashoffset="89"></line>
    <line class="yellow" x1="55.685" y1="80.08" x2="12.198" y2="123.567" marker-start="url(#arrow-yellow)" marker-end="url(#arrow-yellow)" stroke-dasharray="48" stroke-dashoffset="89"></line>
    <circle class="green" cx="-83.138" cy="48" r="16"></circle>
    <circle class="green" cx="-48" cy="-83.138" r="16"></circle>
    <circle class="green" cx="160.611" cy="-92.729" r="16"></circle>
    <circle class="green" cx="160.611" cy="43.036" r="16"></circle>
    <circle class="green" cx="115.882" cy="151.021" r="16"></circle>
    <circle class="green" cx="0" cy="135.765" r="16"></circle>
    <circle class="blue" cx="0" cy="0" r="16"></circle>
    <circle class="blue" cx="92.729" cy="-24.847" r="16"></circle>
    <circle class="blue" cx="67.882" cy="67.882" r="16"></circle>
    <text class="green" x="160.611" y="43.036" text-anchor="middle">
        <tspan x="160.611" y="48.936">*</tspan>
    </text>

</svg>
