<svg id="figure-signal-routing-protocols" class="figure" data-name="signal-routing-protocols" width="278.749" height="278.75" viewBox="-100.638 -110.229 278.749 278.75" preserveAspectRatio="xMidYMid" xmlns="http://www.w3.org/2000/svg">

    <line class="yellow" x1="-15.155" y1="8.75" x2="-67.983" y2="39.25"></line>
    <line class="yellow" x1="-8.75" y1="-15.155" x2="-39.25" y2="-67.983"></line>
    <line class="yellow" x1="16.904" y1="-4.529" x2="75.825" y2="-20.317"></line>
    <line class="red" x1="12.374" y1="12.374" x2="55.508" y2="55.508"></line>
    <line class="yellow" x1="88.2" y1="-7.943" x2="72.412" y2="50.979"></line>
    <line class="yellow" x1="105.103" y1="-37.221" x2="148.237" y2="-80.355"></line>
    <line class="yellow" x1="105.103" y1="-12.472" x2="148.237" y2="30.661"></line>
    <line class="yellow" x1="84.786" y1="63.353" x2="143.707" y2="47.565"></line>
    <line class="yellow" x1="76.632" y1="83.038" x2="107.132" y2="135.865"></line>
    <line class="yellow" x1="55.508" y1="80.257" x2="12.374" y2="123.39"></line>
    <line class="red" x1="33.941" y1="43.941" x2="33.941" y2="23.941"></line>
    <line class="red" x1="23.941" y1="33.941" x2="43.941" y2="33.941"></line>
    <circle class="green" cx="-83.138" cy="48" r="16"></circle>
    <circle class="green" cx="-48" cy="-83.138" r="16"></circle>
    <circle class="green" cx="160.611" cy="-92.729" r="16"></circle>
    <circle class="green" cx="160.611" cy="43.036" r="16"></circle>
    <circle class="green" cx="115.882" cy="151.021" r="16"></circle>
    <circle class="green" cx="0" cy="135.765" r="16"></circle>
    <circle class="blue" cx="0" cy="0" r="16"></circle>
    <circle class="blue" cx="92.729" cy="-24.847" r="16"></circle>
    <circle class="blue" cx="67.882" cy="67.882" r="16"></circle>
    <text class="blue" x="0" y="0" text-anchor="middle">
        <tspan x="0" y="5.9">A</tspan>
    </text>
    <text class="blue" x="92.729" y="-24.847" text-anchor="middle">
        <tspan x="92.729" y="-18.947">B</tspan>
    </text>
    <text class="blue" x="67.882" y="67.882" text-anchor="middle">
        <tspan x="67.882" y="73.782">C</tspan>
    </text>
    <text class="green" x="-83.138" y="48" text-anchor="middle">
        <tspan x="-83.138" y="53.9">A1</tspan>
    </text>
    <text class="green" x="-48" y="-83.138" text-anchor="middle">
        <tspan x="-48" y="-77.238">A2</tspan>
    </text>
    <text class="green" x="160.611" y="-92.729" text-anchor="middle">
        <tspan x="160.611" y="-86.829">B1</tspan>
    </text>
    <text class="green" x="160.611" y="43.036" text-anchor="middle">
        <tspan x="160.611" y="15.936">B2</tspan>
        <tspan x="160.611" y="37.936"></tspan>
        <tspan x="160.611" y="59.936"></tspan>
        <tspan x="160.611" y="81.936">C1</tspan>
    </text>
    <text class="green" x="115.882" y="151.021" text-anchor="middle">
        <tspan x="115.882" y="156.921">C2</tspan>
    </text>
    <text class="green" x="0" y="135.765" text-anchor="middle">
        <tspan x="0" y="141.665">C3</tspan>
    </text>
    <text class="yellow" x="-48.569" y="11.876" text-anchor="middle">
        <tspan x="-48.569" y="17.776"><tspan class="small">1</tspan></tspan>
    </text>
    <text class="yellow" x="-11.876" y="-48.569" text-anchor="middle">
        <tspan x="-11.876" y="-42.669"><tspan class="small">2</tspan></tspan>
    </text>
    <text class="yellow" x="42.741" y="-25.946" text-anchor="middle">
        <tspan x="42.741" y="-20.046"><tspan class="small">3</tspan></tspan>
    </text>

</svg>
