<svg id="figure-signal-relaying-packet-response" class="figure" data-name="signal-relaying-packet-response" width="278.749" height="278.75" viewBox="-100.638 -110.229 278.749 278.75" preserveAspectRatio="xMidYMid" xmlns="http://www.w3.org/2000/svg">

    <defs>
        <marker id="arrow-orange" orient="auto-start-reverse" markerWidth="4" markerHeight="4" refX="4" refY="2">
            <path d="M0,0 L1,2 L0,4 L4,2 Z" class="orange" />
        </marker>
    </defs>

    <line class="yellow" x1="-8.75" y1="-15.155" x2="-39.25" y2="-67.983"></line>
    <line class="yellow" x1="12.374" y1="12.374" x2="55.508" y2="55.508"></line>
    <line class="yellow" x1="105.103" y1="-37.221" x2="148.237" y2="-80.355"></line>
    <line class="yellow" x1="105.103" y1="-12.472" x2="148.237" y2="30.661"></line>
    <line class="yellow" x1="76.632" y1="83.038" x2="107.132" y2="135.865"></line>
    <line class="yellow" x1="55.508" y1="80.257" x2="12.374" y2="123.39"></line>
    <line class="orange" x1="143.707" y1="47.565" x2="84.786" y2="63.353" marker-end="url(#arrow-orange)" stroke-dasharray="54"></line>
    <line class="orange" x1="72.412" y1="50.979" x2="88.2" y2="-7.943" marker-end="url(#arrow-orange)" stroke-dasharray="54"></line>
    <line class="orange" x1="75.825" y1="-20.317" x2="16.904" y2="-4.529" marker-end="url(#arrow-orange)" stroke-dasharray="54"></line>
    <line class="orange" x1="-15.155" y1="8.75" x2="-67.983" y2="39.25" marker-end="url(#arrow-orange)" stroke-dasharray="54"></line>
    <text class="orange" x="109.588" y="38.072" text-anchor="middle">
        <tspan x="109.588" y="43.972">■</tspan>
    </text>
    <text class="orange" x="62.919" y="16.859" text-anchor="middle">
        <tspan x="62.919" y="22.759">■</tspan>
    </text>
    <text class="orange" x="41.706" y="-29.81" text-anchor="middle">
        <tspan x="41.706" y="-23.91">■</tspan>
    </text>
    <text class="orange" x="-50.569" y="8.412" text-anchor="middle">
        <tspan x="-50.569" y="14.312">■</tspan>
    </text>
    <circle class="green" cx="-83.138" cy="48" r="16"></circle>
    <circle class="green" cx="-48" cy="-83.138" r="16"></circle>
    <circle class="green" cx="160.611" cy="-92.729" r="16"></circle>
    <circle class="green" cx="160.611" cy="43.036" r="16"></circle>
    <circle class="green" cx="115.882" cy="151.021" r="16"></circle>
    <circle class="green" cx="0" cy="135.765" r="16"></circle>
    <circle class="blue" cx="0" cy="0" r="16"></circle>
    <circle class="blue" cx="92.729" cy="-24.847" r="16"></circle>
    <circle class="blue" cx="67.882" cy="67.882" r="16"></circle>

</svg>
