<svg id="figure-signal-relaying-circuit" class="figure" data-name="signal-relaying-circuit" width="278.249" height="278.25" viewBox="-100.388 -109.979 278.249 278.25" preserveAspectRatio="xMidYMid" xmlns="http://www.w3.org/2000/svg">

    <line class="yellow" x1="-8.625" y1="-14.939" x2="-39.375" y2="-68.2"></line>
    <line class="yellow" x1="16.662" y1="-4.465" x2="76.067" y2="-20.382"></line>
    <line class="yellow" x1="88.264" y1="-8.184" x2="72.347" y2="51.22"></line>
    <line class="yellow" x1="104.926" y1="-37.044" x2="148.414" y2="-80.531"></line>
    <line class="yellow" x1="104.926" y1="-12.649" x2="148.414" y2="30.838"></line>
    <line class="yellow" x1="76.507" y1="82.821" x2="107.257" y2="136.082"></line>
    <line class="yellow" x1="55.685" y1="80.08" x2="12.198" y2="123.567"></line>
    <circle class="green" cx="-83.138" cy="48" r="16"></circle>
    <circle class="green" cx="-48" cy="-83.138" r="16"></circle>
    <circle class="green" cx="160.611" cy="-92.729" r="16"></circle>
    <circle class="green" cx="160.611" cy="43.036" r="16"></circle>
    <circle class="green" cx="115.882" cy="151.021" r="16"></circle>
    <circle class="green" cx="0" cy="135.765" r="16"></circle>
    <circle class="blue" cx="0" cy="0" r="16"></circle>
    <circle class="blue" cx="92.729" cy="-24.847" r="16"></circle>
    <circle class="blue" cx="67.882" cy="67.882" r="16"></circle>
    <polyline class="orange" points="-68.2,39.375 0,0 67.882,67.882 143.949,47.5" marker-start="url(#arrow-orange)" marker-mid="url(#circle-orange)" marker-end="url(#arrow-orange)" stroke-dasharray="240" stroke-dashoffset="473"></polyline>

</svg>
