<svg width="278.249" height="278.25" viewBox="-100.388 -109.979 278.249 278.25" preserveAspectRatio="xMidYMid" xmlns="http://www.w3.org/2000/svg">

    <metadata>
        <rdf:RDF xmlns:rdf="http://www.w3.org/1999/02/22-rdf-syntax-ns#" xmlns:schema="http://schema.org/">
            <rdf:Description rdf:about="">
                <schema:author rdf:resource="https://www.kasparetter.com/"/>
                <schema:license rdf:resource="https://creativecommons.org/licenses/by/4.0/"/>
            </rdf:Description>
        </rdf:RDF>
    </metadata>

    <style>
        @import url("https://fonts.googleapis.com/css?family=Lato:400,700,400italic");

        svg {
            font-family: Lato,-apple-system,BlinkMacSystemFont,"Segoe UI",Roboto,"Helvetica Neue",Arial,sans-serif,"Apple Color Emoji","Segoe UI Emoji","Segoe UI Symbol";
            font-size: 1rem;
            font-weight: 400;
            line-height: 1.5;
        }

        svg {
            fill: #000000;
            stroke: #000000;
        }

        text {
            stroke-opacity: 0;
        }

        line, rect, circle, ellipse, polygon, polyline, path {
            fill-opacity: 0;
            stroke-width: 2.5;
            stroke-linecap: round;
            stroke-linejoin: round;
        }

        .small {
            font-size: 80%;
        }

        .blue {
            fill: #0066CC;
            stroke: #0066CC;
        }

        .yellow {
            fill: #E6AC00;
            stroke: #E6AC00;
        }

        .green {
            fill: #009973;
            stroke: #009973;
        }
    </style>

    <line class="yellow" x1="-14.939" y1="8.625" x2="-68.2" y2="39.375"></line>
    <line class="yellow" x1="-8.625" y1="-14.939" x2="-39.375" y2="-68.2"></line>
    <line class="yellow" x1="16.662" y1="-4.465" x2="76.067" y2="-20.382"></line>
    <line class="yellow" x1="12.198" y1="12.198" x2="55.685" y2="55.685"></line>
    <line class="yellow" x1="88.264" y1="-8.184" x2="72.347" y2="51.22"></line>
    <line class="yellow" x1="104.926" y1="-37.044" x2="148.414" y2="-80.531"></line>
    <line class="yellow" x1="104.926" y1="-12.649" x2="148.414" y2="30.838"></line>
    <line class="yellow" x1="84.544" y1="63.418" x2="143.949" y2="47.5"></line>
    <line class="yellow" x1="76.507" y1="82.821" x2="107.257" y2="136.082"></line>
    <line class="yellow" x1="55.685" y1="80.08" x2="12.198" y2="123.567"></line>
    <circle class="green" cx="-83.138" cy="48" r="16"></circle>
    <circle class="green" cx="-48" cy="-83.138" r="16"></circle>
    <circle class="green" cx="160.611" cy="-92.729" r="16"></circle>
    <circle class="green" cx="160.611" cy="43.036" r="16"></circle>
    <circle class="green" cx="115.882" cy="151.021" r="16"></circle>
    <circle class="green" cx="0" cy="135.765" r="16"></circle>
    <circle class="blue" cx="0" cy="0" r="16"></circle>
    <circle class="blue" cx="92.729" cy="-24.847" r="16"></circle>
    <circle class="blue" cx="67.882" cy="67.882" r="16"></circle>
    <text class="blue" x="0" y="0" text-anchor="middle">
        <tspan x="0" y="5.9">A</tspan>
    </text>
    <text class="blue" x="92.729" y="-24.847" text-anchor="middle">
        <tspan x="92.729" y="-18.947">B</tspan>
    </text>
    <text class="blue" x="67.882" y="67.882" text-anchor="middle">
        <tspan x="67.882" y="73.782">C</tspan>
    </text>
    <text class="green" x="-83.138" y="48" text-anchor="middle">
        <tspan x="-83.138" y="53.9">A1</tspan>
    </text>
    <text class="green" x="-48" y="-83.138" text-anchor="middle">
        <tspan x="-48" y="-77.238">A2</tspan>
    </text>
    <text class="green" x="160.611" y="-92.729" text-anchor="middle">
        <tspan x="160.611" y="-86.829">B1</tspan>
    </text>
    <text class="green" x="160.611" y="43.036" text-anchor="middle">
        <tspan x="160.611" y="15.936">B2</tspan>
        <tspan x="160.611" y="37.936"></tspan>
        <tspan x="160.611" y="59.936"></tspan>
        <tspan x="160.611" y="81.936">C1</tspan>
    </text>
    <text class="green" x="115.882" y="151.021" text-anchor="middle">
        <tspan x="115.882" y="156.921">C2</tspan>
    </text>
    <text class="green" x="0" y="135.765" text-anchor="middle">
        <tspan x="0" y="141.665">C3</tspan>
    </text>
    <text class="yellow" x="-48.569" y="11.876" text-anchor="middle">
        <tspan x="-48.569" y="17.776"><tspan class="small">1</tspan></tspan>
    </text>
    <text class="yellow" x="-11.876" y="-48.569" text-anchor="middle">
        <tspan x="-11.876" y="-42.669"><tspan class="small">2</tspan></tspan>
    </text>
    <text class="yellow" x="42.741" y="-25.946" text-anchor="middle">
        <tspan x="42.741" y="-20.046"><tspan class="small">3</tspan></tspan>
    </text>
    <text class="yellow" x="43.841" y="24.042" text-anchor="middle">
        <tspan x="43.841" y="29.942"><tspan class="small">4</tspan></tspan>
    </text>

</svg>
