<svg id="figure-signal-relaying-packet-loop" class="figure" data-name="signal-relaying-packet-loop" width="278.249" height="278.25" viewBox="-100.388 -109.979 278.249 278.25" preserveAspectRatio="xMidYMid" xmlns="http://www.w3.org/2000/svg">

    <line class="yellow" x1="-8.625" y1="-14.939" x2="-39.375" y2="-68.2"></line>
    <line class="yellow" x1="104.926" y1="-37.044" x2="148.414" y2="-80.531"></line>
    <line class="yellow" x1="104.926" y1="-12.649" x2="148.414" y2="30.838"></line>
    <line class="yellow" x1="84.544" y1="63.418" x2="143.949" y2="47.5"></line>
    <line class="yellow" x1="76.507" y1="82.821" x2="107.257" y2="136.082"></line>
    <line class="yellow" x1="55.685" y1="80.08" x2="12.198" y2="123.567"></line>
    <line class="orange" x1="-68.2" y1="39.375" x2="-14.939" y2="8.625" marker-end="url(#arrow-orange)" stroke-dasharray="54"></line>
    <line class="orange" x1="16.662" y1="-4.465" x2="76.067" y2="-20.382" marker-end="url(#arrow-orange)" stroke-dasharray="55"></line>
    <line class="orange" x1="88.264" y1="-8.184" x2="72.347" y2="51.22" marker-end="url(#arrow-orange)" stroke-dasharray="55"></line>
    <line class="orange" x1="55.685" y1="55.685" x2="12.198" y2="12.198" marker-end="url(#arrow-orange)" stroke-dasharray="55"></line>
    <text class="orange" x="-50.569" y="8.412" text-anchor="middle">
        <tspan x="-50.569" y="14.312">■</tspan>
    </text>
    <text class="orange" x="41.706" y="-29.81" text-anchor="middle">
        <tspan x="41.706" y="-23.91">■</tspan>
    </text>
    <text class="orange" x="97.692" y="26.177" text-anchor="middle">
        <tspan x="97.692" y="32.077">■</tspan>
    </text>
    <text class="orange" x="21.213" y="46.669" text-anchor="middle">
        <tspan x="21.213" y="52.569">■</tspan>
    </text>
    <circle class="green" cx="-83.138" cy="48" r="16"></circle>
    <circle class="green" cx="-48" cy="-83.138" r="16"></circle>
    <circle class="green" cx="160.611" cy="-92.729" r="16"></circle>
    <circle class="green" cx="160.611" cy="43.036" r="16"></circle>
    <circle class="green" cx="115.882" cy="151.021" r="16"></circle>
    <circle class="green" cx="0" cy="135.765" r="16"></circle>
    <circle class="blue" cx="0" cy="0" r="16"></circle>
    <circle class="blue" cx="92.729" cy="-24.847" r="16"></circle>
    <circle class="blue" cx="67.882" cy="67.882" r="16"></circle>

</svg>
