<svg id="figure-signal-relaying-packet-response" class="figure" data-name="signal-relaying-packet-response" width="278.249" height="278.25" viewBox="-100.388 -109.979 278.249 278.25" preserveAspectRatio="xMidYMid" xmlns="http://www.w3.org/2000/svg">

    <defs>
        <marker id="arrow-orange" orient="auto-start-reverse" markerWidth="4" markerHeight="4" refX="4" refY="2">
            <path d="M0,0 L1,2 L0,4 L4,2 Z" class="orange" />
        </marker>
    </defs>

    <line class="yellow" x1="-8.625" y1="-14.939" x2="-39.375" y2="-68.2"></line>
    <line class="yellow" x1="12.198" y1="12.198" x2="55.685" y2="55.685"></line>
    <line class="yellow" x1="104.926" y1="-37.044" x2="148.414" y2="-80.531"></line>
    <line class="yellow" x1="104.926" y1="-12.649" x2="148.414" y2="30.838"></line>
    <line class="yellow" x1="76.507" y1="82.821" x2="107.257" y2="136.082"></line>
    <line class="yellow" x1="55.685" y1="80.08" x2="12.198" y2="123.567"></line>
    <line class="orange" x1="143.949" y1="47.5" x2="84.544" y2="63.418" marker-end="url(#arrow-orange)" stroke-dasharray="55"></line>
    <line class="orange" x1="72.347" y1="51.22" x2="88.264" y2="-8.184" marker-end="url(#arrow-orange)" stroke-dasharray="55"></line>
    <line class="orange" x1="76.067" y1="-20.382" x2="16.662" y2="-4.465" marker-end="url(#arrow-orange)" stroke-dasharray="55"></line>
    <line class="orange" x1="-14.939" y1="8.625" x2="-68.2" y2="39.375" marker-end="url(#arrow-orange)" stroke-dasharray="54"></line>
    <text class="orange" x="109.588" y="38.072" text-anchor="middle">
        <tspan x="109.588" y="43.972">■</tspan>
    </text>
    <text class="orange" x="62.919" y="16.859" text-anchor="middle">
        <tspan x="62.919" y="22.759">■</tspan>
    </text>
    <text class="orange" x="41.706" y="-29.81" text-anchor="middle">
        <tspan x="41.706" y="-23.91">■</tspan>
    </text>
    <text class="orange" x="-50.569" y="8.412" text-anchor="middle">
        <tspan x="-50.569" y="14.312">■</tspan>
    </text>
    <circle class="green" cx="-83.138" cy="48" r="16"></circle>
    <circle class="green" cx="-48" cy="-83.138" r="16"></circle>
    <circle class="green" cx="160.611" cy="-92.729" r="16"></circle>
    <circle class="green" cx="160.611" cy="43.036" r="16"></circle>
    <circle class="green" cx="115.882" cy="151.021" r="16"></circle>
    <circle class="green" cx="0" cy="135.765" r="16"></circle>
    <circle class="blue" cx="0" cy="0" r="16"></circle>
    <circle class="blue" cx="92.729" cy="-24.847" r="16"></circle>
    <circle class="blue" cx="67.882" cy="67.882" r="16"></circle>

</svg>
