<svg version="1" xmlns="http://www.w3.org/2000/svg" width="1333.333" height="1333.333" viewBox="0 0 1000.000000 1000.000000"><path d="M479.9.4c-.2.2-6 .6-12.9 1-6.9.3-13.6.8-15 1-1.4.3-5 .7-8 1C384.5 9 313.2 31.7 257.9 62.7c-16.9 9.5-15.5 8.7-30.8 18.7-42.3 27.7-77.4 58.9-110.5 98.1-43.3 51.5-75.4 111-95.5 177-7.5 24.6-15 61.3-17.6 86-.4 3.3-.8 7.1-1 8.4-1.9 11.3-2.6 63.5-1.2 82.6 1.2 16.9 3.2 34.4 5.3 46.5.8 4.7 1.7 10.1 2 12 .9 5.6 7.2 32.7 10 42.5C35.2 693.6 62.4 749 98.9 798c7.1 9.7 21.1 27.2 23.1 29 .3.3 2.5 2.7 4.9 5.5 19.3 21.9 46.8 47.3 71.1 65.7 72.4 54.7 158.3 89 246 98.4 3 .3 6.6.7 8 1 15.6 2.5 73.2 2.4 97-.1 83.8-8.9 158.5-35.5 227-80.8 18.4-12.2 48.3-35.5 60.6-47.2 23.6-22.5 35.4-35 50.5-53.5 66.1-80.9 104.7-179.1 111.6-283.5 1.4-20.3.7-68.1-1.2-81-.2-1.7-.9-7.3-1.5-12.5-9-76-36.9-151.3-80.3-216.5-19.9-29.8-40-53.9-66.6-79.9-13.9-13.5-12.6-12.4-21.1-19.7-4.1-3.5-7.7-6.6-8-6.9-1.6-1.6-15.9-12.7-24-18.7-33.9-24.9-71.7-46-109-60.8-8-3.1-15.4-6.1-16.5-6.6-5.8-2.4-29.1-9.5-44.5-13.5-26.5-6.9-57.2-12.3-78.5-13.9-4.4-.4-9.6-.8-11.5-1.1-4.1-.5-55.6-1.4-56.1-1zm-57.6 294.4l77.8 77.8 77.7-77.8c42.7-42.8 78-77.8 78.5-77.8.9 0 126.7 125.8 126.7 126.7 0 .5-34.9 35.7-77.5 78.2-42.6 42.6-77.5 77.8-77.5 78.1 0 .3 35 35.6 77.9 78.4l77.8 77.9-63.3 63.3c-34.9 34.9-63.7 63.4-64.1 63.4-.5 0-35.7-34.9-78.3-77.5-42.6-42.6-77.7-77.5-78-77.5-.3 0-35.4 34.9-78 77.5S344.2 783 343.7 783c-.4 0-29.2-28.5-64.1-63.3l-63.3-63.4 77.9-77.8C337 535.7 372 500.4 372 500c0-.3-34.9-35.4-77.5-78S217 344.2 217 343.8c0-1.1 125.3-126.6 126.5-126.7.6-.1 36 34.9 78.8 77.7z"/></svg>