<svg id="figure-greeting-protocol-deviation" class="figure" data-name="greeting-protocol-deviation" width="300.06600000000003" height="253.25" viewBox="-31.033 -1.25 300.06600000000003 253.25" preserveAspectRatio="xMidYMid" xmlns="http://www.w3.org/2000/svg">

    <g>
        <rect x="-29.783" y="0" width="59.566" height="39.5" rx="8" ry="8"></rect>
        <text x="0" y="19.75" text-anchor="middle">
            <tspan x="0" y="25.65"><tspan class="font-weight-bold">Alice</tspan></tspan>
        </text>
        <line x1="0" y1="40.75" x2="0" y2="250.75"></line>
    </g>
    <g>
        <rect x="208.217" y="0" width="59.566" height="39.5" rx="8" ry="8"></rect>
        <text x="238" y="19.75" text-anchor="middle">
            <tspan x="238" y="25.65"><tspan class="font-weight-bold">Bob</tspan></tspan>
        </text>
        <line x1="238" y1="40.75" x2="238" y2="250.75"></line>
    </g>
    <g>
        <line x1="0" y1="79.5" x2="236.75" y2="79.5" marker-start="url(#circle)" marker-end="url(#arrow)" stroke-dasharray="230"></line>
        <text x="118.375" y="69.5" text-anchor="middle">
            <tspan x="118.375" y="69.5">Hi Bob!</tspan>
        </text>
    </g>
    <g>
        <line x1="238" y1="119.5" x2="1.25" y2="119.5" marker-start="url(#circle)" marker-end="url(#arrow)" stroke-dasharray="230"></line>
        <text x="119.625" y="109.5" text-anchor="middle">
            <tspan x="119.625" y="109.5">Hi Alice!</tspan>
        </text>
    </g>
    <g>
        <line x1="0" y1="159.5" x2="236.75" y2="159.5" marker-start="url(#circle)" marker-end="url(#arrow)" stroke-dasharray="230"></line>
        <text x="118.375" y="149.5" text-anchor="middle">
            <tspan x="118.375" y="149.5">How are you?</tspan>
        </text>
    </g>
    <g>
        <line class="red" x1="238" y1="199.5" x2="1.25" y2="199.5" marker-start="url(#circle-red)" marker-end="url(#arrow-red)" stroke-dasharray="230"></line>
        <text class="red" x="119.625" y="189.5" text-anchor="middle">
            <tspan x="119.625" y="189.5">Not good.</tspan>
        </text>
    </g>
    <g>
        <line class="green" x1="0" y1="239.5" x2="236.75" y2="239.5" marker-start="url(#circle-green)" marker-end="url(#arrow-green)" stroke-dasharray="230"></line>
        <text class="green" x="118.375" y="229.5" text-anchor="middle">
            <tspan x="118.375" y="229.5">What happened?</tspan>
        </text>
    </g>

</svg>
