<svg id="figure-greeting-protocol-default" class="figure" data-name="greeting-protocol-default" width="300.06600000000003" height="307.25" viewBox="-31.033 -1.25 300.06600000000003 307.25" preserveAspectRatio="xMidYMid" xmlns="http://www.w3.org/2000/svg">

    <g>
        <rect x="-29.783" y="0" width="59.566" height="39.5" rx="8" ry="8"></rect>
        <text text-anchor="middle">
            <tspan x="0" y="25.65"><tspan class="font-weight-bold">Alice</tspan></tspan>
        </text>
        <line x1="0" y1="40.75" x2="0" y2="304.75"></line>
    </g>
    <g>
        <rect x="208.217" y="0" width="59.566" height="39.5" rx="8" ry="8"></rect>
        <text text-anchor="middle">
            <tspan x="238" y="25.65"><tspan class="font-weight-bold">Bob</tspan></tspan>
        </text>
        <line x1="238" y1="40.75" x2="238" y2="304.75"></line>
    </g>
    <g>
        <line x1="0" y1="81.5" x2="236.75" y2="81.5" marker-start="url(#circle)" marker-end="url(#arrow)" stroke-dasharray="230"></line>
        <text text-anchor="middle">
            <tspan x="118.375" y="69.5">Hi Bob!</tspan>
        </text>
    </g>
    <g>
        <line x1="238" y1="123.5" x2="1.25" y2="123.5" marker-start="url(#circle)" marker-end="url(#arrow)" stroke-dasharray="230"></line>
        <text text-anchor="middle">
            <tspan x="119.625" y="111.5">Hi Alice!</tspan>
        </text>
    </g>
    <g>
        <line x1="0" y1="165.5" x2="236.75" y2="165.5" marker-start="url(#circle)" marker-end="url(#arrow)" stroke-dasharray="230"></line>
        <text text-anchor="middle">
            <tspan x="118.375" y="153.5">How are you?</tspan>
        </text>
    </g>
    <g>
        <line x1="238" y1="207.5" x2="1.25" y2="207.5" marker-start="url(#circle)" marker-end="url(#arrow)" stroke-dasharray="230"></line>
        <text text-anchor="middle">
            <tspan x="119.625" y="195.5">Good.</tspan>
        </text>
    </g>
    <g>
        <line x1="238" y1="249.5" x2="1.25" y2="249.5" marker-start="url(#circle)" marker-end="url(#arrow)" stroke-dasharray="230"></line>
        <text text-anchor="middle">
            <tspan x="119.625" y="237.5">What about you?</tspan>
        </text>
    </g>
    <g>
        <line x1="0" y1="291.5" x2="236.75" y2="291.5" marker-start="url(#circle)" marker-end="url(#arrow)" stroke-dasharray="230"></line>
        <text text-anchor="middle">
            <tspan x="118.375" y="279.5">I'm fine, thanks.</tspan>
        </text>
    </g>

</svg>
