<svg id="figure-signal-relaying-circuit" class="figure" data-name="signal-relaying-circuit" width="278.249" height="278.25" viewBox="-100.388 -109.979 278.249 278.25" preserveAspectRatio="xMidYMid" xmlns="http://www.w3.org/2000/svg">

    <line class="yellow" x1="-8.156" y1="-14.127" x2="-39.844" y2="-69.011"></line>
    <line class="yellow" x1="15.757" y1="-4.222" x2="76.972" y2="-20.625"></line>
    <line class="yellow" x1="88.507" y1="-9.09" x2="72.104" y2="52.126"></line>
    <line class="yellow" x1="104.264" y1="-36.381" x2="149.076" y2="-81.194"></line>
    <line class="yellow" x1="104.264" y1="-13.312" x2="149.076" y2="31.501"></line>
    <line class="yellow" x1="76.039" y1="82.009" x2="107.726" y2="136.894"></line>
    <line class="yellow" x1="56.348" y1="79.417" x2="11.535" y2="124.23"></line>
    <circle class="green" cx="-83.138" cy="48" r="16"></circle>
    <circle class="green" cx="-48" cy="-83.138" r="16"></circle>
    <circle class="green" cx="160.611" cy="-92.729" r="16"></circle>
    <circle class="green" cx="160.611" cy="43.036" r="16"></circle>
    <circle class="green" cx="115.882" cy="151.021" r="16"></circle>
    <circle class="green" cx="0" cy="135.765" r="16"></circle>
    <circle class="blue" cx="0" cy="0" r="16"></circle>
    <circle class="blue" cx="92.729" cy="-24.847" r="16"></circle>
    <circle class="blue" cx="67.882" cy="67.882" r="16"></circle>
    <polyline class="orange" points="-68.2,39.375 0,0 67.882,67.882 143.949,47.5" marker-start="url(#arrow-orange)" marker-mid="url(#circle-orange)" marker-end="url(#arrow-orange)" stroke-dasharray="240" stroke-dashoffset="473"></polyline>

</svg>
