<svg id="figure-signal-relaying-packet-response" class="figure" data-name="signal-relaying-packet-response" width="278.249" height="278.25" viewBox="-100.388 -109.979 278.249 278.25" preserveAspectRatio="xMidYMid" xmlns="http://www.w3.org/2000/svg">

    <line class="yellow" x1="-8.156" y1="-14.127" x2="-39.844" y2="-69.011"></line>
    <line class="yellow" x1="11.535" y1="11.535" x2="56.348" y2="56.348"></line>
    <line class="yellow" x1="104.264" y1="-36.381" x2="149.076" y2="-81.194"></line>
    <line class="yellow" x1="104.264" y1="-13.312" x2="149.076" y2="31.501"></line>
    <line class="yellow" x1="76.039" y1="82.009" x2="107.726" y2="136.894"></line>
    <line class="yellow" x1="56.348" y1="79.417" x2="11.535" y2="124.23"></line>
    <line class="orange" x1="144.854" y1="47.258" x2="84.544" y2="63.418" marker-end="url(#arrow-orange)" stroke-dasharray="55"></line>
    <line class="orange" x1="72.104" y1="52.126" x2="88.264" y2="-8.184" marker-end="url(#arrow-orange)" stroke-dasharray="55"></line>
    <line class="orange" x1="76.972" y1="-20.625" x2="16.662" y2="-4.465" marker-end="url(#arrow-orange)" stroke-dasharray="55"></line>
    <line class="orange" x1="-14.127" y1="8.156" x2="-68.2" y2="39.375" marker-end="url(#arrow-orange)" stroke-dasharray="55"></line>
    <text class="orange" x="110.041" y="37.951" text-anchor="middle">
        <tspan x="110.041" y="43.851">■</tspan>
    </text>
    <text class="orange" x="62.798" y="17.312" text-anchor="middle">
        <tspan x="62.798" y="23.212">■</tspan>
    </text>
    <text class="orange" x="42.158" y="-29.931" text-anchor="middle">
        <tspan x="42.158" y="-24.031">■</tspan>
    </text>
    <text class="orange" x="-50.163" y="8.177" text-anchor="middle">
        <tspan x="-50.163" y="14.077">■</tspan>
    </text>
    <circle class="green" cx="-83.138" cy="48" r="16"></circle>
    <circle class="green" cx="-48" cy="-83.138" r="16"></circle>
    <circle class="green" cx="160.611" cy="-92.729" r="16"></circle>
    <circle class="green" cx="160.611" cy="43.036" r="16"></circle>
    <circle class="green" cx="115.882" cy="151.021" r="16"></circle>
    <circle class="green" cx="0" cy="135.765" r="16"></circle>
    <circle class="blue" cx="0" cy="0" r="16"></circle>
    <circle class="blue" cx="92.729" cy="-24.847" r="16"></circle>
    <circle class="blue" cx="67.882" cy="67.882" r="16"></circle>

</svg>
