<svg width="282.5" height="162.5" viewBox="-61.25 -1.25 282.5 162.5" preserveAspectRatio="xMidYMid" xmlns="http://www.w3.org/2000/svg">

    <metadata>
        <rdf:RDF xmlns:rdf="http://www.w3.org/1999/02/22-rdf-syntax-ns#" xmlns:schema="http://schema.org/">
            <rdf:Description rdf:about="">
                <schema:author rdf:resource="https://kasparetter.com/"/>
                <schema:license rdf:resource="https://creativecommons.org/licenses/by/4.0/"/>
            </rdf:Description>
        </rdf:RDF>
    </metadata>

    <style>
        svg {
            font-family: Lato, Arial, STIXGeneral, -apple-system, BlinkMacSystemFont, "Segoe UI", Roboto, "Helvetica Neue", sans-serif, "Apple Color Emoji", "Segoe UI Emoji", "Segoe UI Symbol";
            font-size: 1rem;
            font-weight: 400;
            line-height: 1.5;
        }

        svg {
            fill: #000000;
            stroke: #000000;
        }

        line, rect, circle, ellipse, polygon, polyline, path {
            fill-opacity: 0;
            stroke-width: 2.5;
            stroke-linecap: round;
            stroke-linejoin: round;
        }

        marker > path {
            fill-opacity: 1;
            stroke-opacity: 0;
        }

        .blue {
            fill: #0066CC;
            stroke: #0066CC;
        }

        .green {
            fill: #009973;
            stroke: #009973;
        }

        .gray {
            fill: #666666;
            stroke: #666666;
        }
    </style>

    <defs>
        <marker id="arrow-blue" orient="auto-start-reverse" markerWidth="4" markerHeight="4" refX="4" refY="2">
            <path d="M0,0 L1,2 L0,4 L4,2 Z" class="blue" />
        </marker>
        <marker id="arrow-green" orient="auto-start-reverse" markerWidth="4" markerHeight="4" refX="4" refY="2">
            <path d="M0,0 L1,2 L0,4 L4,2 Z" class="green" />
        </marker>
    </defs>

    <path class="blue" d="M -0.312,140 A 39.688 98.75 0 0 1 -40,41.25 L -40.000519,41.240013" marker-end="url(#arrow-blue)" stroke-dasharray="107"></path>
    <line class="blue" x1="140" y1="119.688" x2="140" y2="41.25" marker-end="url(#arrow-blue)" stroke-dasharray="71"></line>
    <line class="green" x1="40.313" y1="20" x2="118.75" y2="20" marker-end="url(#arrow-green)" stroke-dasharray="71"></line>
    <line class="green" x1="20" y1="119.688" x2="20" y2="41.25" marker-end="url(#arrow-green)" stroke-dasharray="71"></line>
    <rect x="0" y="120" width="40" height="40" rx="8" ry="8"></rect>
    <rect x="0" y="0" width="40" height="40" rx="8" ry="8"></rect>
    <rect x="120" y="0" width="40" height="40" rx="8" ry="8"></rect>
    <rect x="120" y="120" width="40" height="40" rx="8" ry="8"></rect>
    <rect x="-60" y="0" width="40" height="40" rx="8" ry="8"></rect>
    <rect class="gray" x="180" y="0" width="40" height="40" rx="8" ry="8"></rect>

</svg>
