<svg id="figure-internet-message-access-protocol-states" class="figure" data-name="internet-message-access-protocol-states" width="274.505" height="357" viewBox="-137.252 -1.25 274.505 357" preserveAspectRatio="xMidYMid" xmlns="http://www.w3.org/2000/svg">

    <line class="pink" x1="0" y1="249.813" x2="0" y2="313.75" marker-end="url(#arrow-pink)" stroke-dasharray="57"></line>
    <text class="pink" text-anchor="end">
        <tspan x="-12" y="288.15"><tspan class="code">LOGOUT</tspan></tspan>
    </text>
    <line class="pink" x1="6" y1="209.688" x2="6" y2="145.75" marker-end="url(#arrow-pink)" stroke-dasharray="57"></line>
    <text class="pink" text-anchor="start">
        <tspan x="18" y="172.15"><tspan class="code">CLOSE</tspan></tspan><tspan x="18" y="194.15"><tspan class="code">UNSELECT</tspan></tspan>
    </text>
    <line class="pink" x1="-6" y1="144.813" x2="-6" y2="208.75" marker-end="url(#arrow-pink)" stroke-dasharray="57"></line>
    <text class="pink" text-anchor="end">
        <tspan x="-18" y="172.15"><tspan class="code">SELECT</tspan></tspan><tspan x="-18" y="194.15"><tspan class="code">EXAMINE</tspan></tspan>
    </text>
    <line class="pink" x1="6" y1="104.688" x2="6" y2="40.75" marker-end="url(#arrow-pink)" stroke-dasharray="57"></line>
    <text class="pink" text-anchor="start">
        <tspan x="18" y="78.15"><tspan class="code">UNAUTHENTICATE</tspan></tspan>
    </text>
    <line class="pink" x1="-6" y1="39.813" x2="-6" y2="103.75" marker-end="url(#arrow-pink)" stroke-dasharray="57"></line>
    <text class="pink" text-anchor="end">
        <tspan x="-18" y="67.15"><tspan class="code">LOGIN</tspan></tspan><tspan x="-18" y="89.15"><tspan class="code">  AUTHENTICATE</tspan></tspan>
    </text>
    <rect x="-77.242" y="0" width="154.484" height="39.5" rx="8" ry="8"></rect>
    <text text-anchor="middle">
        <tspan x="0" y="25.65"><tspan class="font-weight-bold">Not authenticated</tspan></tspan>
    </text>
    <rect x="-63.353" y="105" width="126.706" height="39.5" rx="8" ry="8"></rect>
    <text text-anchor="middle">
        <tspan x="0" y="130.65"><tspan class="font-weight-bold">Authenticated</tspan></tspan>
    </text>
    <rect x="-42.605" y="210" width="85.21" height="39.5" rx="8" ry="8"></rect>
    <text text-anchor="middle">
        <tspan x="0" y="235.65"><tspan class="font-weight-bold">Selected</tspan></tspan>
    </text>
    <rect x="-36.976" y="315" width="73.952" height="39.5" rx="8" ry="8"></rect>
    <text text-anchor="middle">
        <tspan x="0" y="340.65"><tspan class="font-weight-bold">Logout</tspan></tspan>
    </text>

</svg>
