<svg id="figure-simplified-architecture-authentication" class="figure" data-name="simplified-architecture-authentication" width="599.148" height="298.25" viewBox="-131.662 -5 599.148 298.25" preserveAspectRatio="xMidYMid" xmlns="http://www.w3.org/2000/svg">

    <path class="gray" d="M -77.706,83.813 A 76.456 166.438 0 0 0 -1.25,250.25 L -1.240169,250.251833" marker-end="url(#arrow-gray)" stroke-dasharray="190"></path>
    <text class="gray" text-anchor="end">
        <tspan x="-60.322" y="223.906">User</tspan><tspan x="-60.322" y="245.906">authen-</tspan><tspan x="-60.322" y="267.906">tication</tspan>
    </text>
    <line x1="283.118" y1="83.813" x2="283.118" y2="207.25" marker-end="url(#arrow)" stroke-dasharray="116"></line>
    <text text-anchor="start">
        <tspan x="295.118" y="129.9">User</tspan><tspan x="295.118" y="151.9">authen-</tspan><tspan x="295.118" y="173.9">tication</tspan>
    </text>
    <line class="green" x1="230.1" y1="41.75" x2="106.662" y2="41.75" marker-end="url(#arrow-green)" stroke-dasharray="116"></line>
    <text class="green" text-anchor="middle">
        <tspan x="167.912" y="7.75">Domain</tspan><tspan x="167.912" y="29.75">authentication</tspan>
    </text>
    <line class="green" x1="52.706" y1="83.813" x2="52.706" y2="207.25" marker-end="url(#arrow-green)" stroke-dasharray="116"></line>
    <text class="green" text-anchor="end">
        <tspan x="40.706" y="129.9">User</tspan><tspan x="40.706" y="151.9">authen-</tspan><tspan x="40.706" y="173.9">tication</tspan>
    </text>
    <rect x="0" y="208.5" width="105.412" height="83.5" rx="8" ry="8"></rect>
    <text text-anchor="middle">
        <tspan x="52.706" y="245.15"><tspan class="font-weight-bold">Mail client</tspan></tspan><tspan x="52.706" y="267.15">of sender</tspan>
    </text>
    <rect x="0" y="0" width="105.412" height="83.5" rx="8" ry="8"></rect>
    <text text-anchor="middle">
        <tspan x="52.706" y="25.65"><tspan class="font-weight-bold">Outgoing</tspan></tspan><tspan x="52.706" y="47.65"><tspan class="font-weight-bold">mail server</tspan></tspan><tspan x="52.706" y="69.65">of sender</tspan>
    </text>
    <rect x="230.412" y="0" width="105.412" height="83.5" rx="8" ry="8"></rect>
    <text text-anchor="middle">
        <tspan x="283.118" y="25.65"><tspan class="font-weight-bold">Incoming</tspan></tspan><tspan x="283.118" y="47.65"><tspan class="font-weight-bold">mail server</tspan></tspan><tspan x="283.118" y="69.65">of recipient</tspan>
    </text>
    <rect x="230.412" y="208.5" width="105.412" height="83.5" rx="8" ry="8"></rect>
    <text text-anchor="middle">
        <tspan x="283.118" y="245.15"><tspan class="font-weight-bold">Mail client</tspan></tspan><tspan x="283.118" y="267.15">of recipient</tspan>
    </text>
    <rect class="gray" x="-130.412" y="0" width="105.412" height="83.5" rx="8" ry="8"></rect>
    <text class="gray" text-anchor="middle">
        <tspan x="-77.706" y="25.65"><tspan class="font-weight-bold">Incoming</tspan></tspan><tspan x="-77.706" y="47.65"><tspan class="font-weight-bold">mail server</tspan></tspan><tspan x="-77.706" y="69.65">of sender</tspan>
    </text>
    <rect class="gray" x="360.824" y="0" width="105.412" height="83.5" rx="8" ry="8"></rect>
    <text class="gray" text-anchor="middle">
        <tspan x="413.53" y="25.65"><tspan class="font-weight-bold">Outgoing</tspan></tspan><tspan x="413.53" y="47.65"><tspan class="font-weight-bold">mail server</tspan></tspan><tspan x="413.53" y="69.65">of recipient</tspan>
    </text>

</svg>
